<svg width="85" height="145" viewBox="0 0 85 145" fill="none" xmlns="http://www.w3.org/2000/svg">
<path d="M56.2241 2.18985C56.6051 1.79003 56.5898 1.15705 56.19 0.776052C55.7901 0.395056 55.1572 0.41032 54.7762 0.810145L56.2241 2.18985ZM34.0001 97.5L34.6824 96.7689L34.0001 97.5ZM83.0001 72L83.9789 72.2049L83.0001 72ZM16.5001 145L16.0053 133.464L6.26192 139.66L16.5001 145ZM16.5 59.5L15.745 58.8443L16.5 59.5ZM15.8271 142.079C15.5415 141.606 14.9268 141.454 14.4541 141.74C13.9814 142.025 13.8296 142.64 14.1152 143.113L15.8271 142.079ZM11.276 138.036C11.5306 138.526 12.1343 138.717 12.6244 138.462C13.1145 138.208 13.3055 137.604 13.0509 137.114L11.276 138.036ZM10.5696 131.981C10.3436 131.477 9.75182 131.251 9.24792 131.478C8.74402 131.704 8.51879 132.295 8.74485 132.799L10.5696 131.981ZM6.5215 127.437C6.71817 127.953 7.29598 128.212 7.81205 128.016C8.32813 127.819 8.58706 127.241 8.39038 126.725L6.5215 127.437ZM6.52359 121.347C6.35853 120.82 5.79747 120.527 5.27043 120.692C4.74339 120.857 4.44994 121.418 4.61501 121.945L6.52359 121.347ZM3.0548 116.338C3.18523 116.874 3.72602 117.204 4.26268 117.073C4.79934 116.943 5.12866 116.402 4.99823 115.866L3.0548 116.338ZM3.84982 110.304C3.75757 109.759 3.24137 109.392 2.69684 109.485C2.15231 109.577 1.78567 110.093 1.87791 110.638L3.84982 110.304ZM1.12365 104.864C1.1738 105.414 1.66031 105.82 2.21031 105.769C2.76032 105.719 3.16553 105.233 3.11539 104.683L1.12365 104.864ZM2.8342 99.0218C2.83023 98.4695 2.3793 98.025 1.82703 98.029C1.27476 98.033 0.830279 98.4839 0.83425 99.0362L2.8342 99.0218ZM1.05279 93.2015C1.00694 93.7519 1.41595 94.2352 1.96633 94.281C2.5167 94.3269 3.00004 93.9179 3.04588 93.3675L1.05279 93.2015ZM3.78205 87.7663C3.88044 87.2228 3.51965 86.7025 2.9762 86.6041C2.43275 86.5057 1.91244 86.8665 1.81404 87.4099L3.78205 87.7663ZM3.14239 81.7107C2.99011 82.2416 3.29701 82.7954 3.82788 82.9477C4.35876 83.1 4.91257 82.793 5.06486 82.2622L3.14239 81.7107ZM6.89356 76.9275C7.09903 76.4149 6.85002 75.8327 6.33738 75.6273C5.82473 75.4218 5.24259 75.6708 5.03712 76.1834L6.89356 76.9275ZM7.48568 70.8713C7.22955 71.3606 7.41857 71.9649 7.90787 72.221C8.39717 72.4771 9.00146 72.2881 9.25759 71.7988L7.48568 70.8713ZM12.124 66.9226C12.4266 66.4606 12.2974 65.8407 11.8354 65.5381C11.3733 65.2356 10.7535 65.3648 10.4509 65.8268L12.124 66.9226ZM13.8644 61.107C13.5208 61.5394 13.5929 62.1685 14.0253 62.5121C14.4577 62.8556 15.0867 62.7836 15.4303 62.3512L13.8644 61.107ZM19.1945 58.0116C19.5734 57.6097 19.5547 56.9768 19.1528 56.598C18.7509 56.2191 18.118 56.2378 17.7392 56.6397L19.1945 58.0116ZM21.9661 52.5252C21.5536 52.8924 21.5169 53.5245 21.8842 53.937C22.2515 54.3495 22.8836 54.3861 23.296 54.0189L21.9661 52.5252ZM27.757 50.4133C28.2031 50.0877 28.3008 49.4621 27.9753 49.016C27.6497 48.5699 27.0242 48.4721 26.578 48.7977L27.757 50.4133ZM31.5392 45.5625C31.0609 45.8387 30.8971 46.4503 31.1732 46.9285C31.4494 47.4068 32.061 47.5706 32.5393 47.2945L31.5392 45.5625ZM37.6313 44.7331C38.1385 44.5147 38.3726 43.9264 38.1541 43.4191C37.9357 42.9119 37.3474 42.6778 36.8401 42.8963L37.6313 44.7331ZM42.4462 40.8896C41.9153 41.0417 41.6083 41.5955 41.7604 42.1264C41.9125 42.6573 42.4663 42.9644 42.9972 42.8122L42.4462 40.8896ZM48.5542 41.6221C49.101 41.5444 49.4813 41.0382 49.4037 40.4914C49.326 39.9446 48.8198 39.5643 48.273 39.642L48.5542 41.6221ZM54.2272 39.2389C53.6749 39.2346 53.2237 39.6789 53.2195 40.2312C53.2153 40.7834 53.6595 41.2346 54.2118 41.2388L54.2272 39.2389ZM59.848 41.7295C60.3925 41.8219 60.9088 41.4555 61.0012 40.911C61.0937 40.3665 60.7272 39.8501 60.1827 39.7577L59.848 41.7295ZM65.9796 41.2619C65.4593 41.0767 64.8873 41.3483 64.7021 41.8686C64.5169 42.3889 64.7885 42.9608 65.3088 43.1461L65.9796 41.2619ZM70.41 45.5207C70.8859 45.801 71.4989 45.6425 71.7792 45.1667C72.0595 44.6908 71.901 44.0778 71.4252 43.7975L70.41 45.5207ZM76.2742 47.3746C75.8671 47.0013 75.2346 47.0288 74.8614 47.4359C74.4881 47.843 74.5156 48.4755 74.9227 48.8488L76.2742 47.3746ZM78.5856 53.0613C78.8973 53.5173 79.5195 53.6343 79.9755 53.3226C80.4315 53.011 80.5485 52.3887 80.2368 51.9328L78.5856 53.0613ZM83.0248 57.3035C82.8318 56.7861 82.2559 56.523 81.7384 56.7159C81.221 56.9089 80.9579 57.4848 81.1508 58.0023L83.0248 57.3035ZM82.4494 63.418C82.5131 63.9666 83.0095 64.3596 83.5581 64.2959C84.1067 64.2322 84.4997 63.7358 84.436 63.1872L82.4494 63.418ZM84.4505 69.2277C84.5092 68.6785 84.1116 68.1857 83.5625 68.127C83.0133 68.0683 82.5205 68.4659 82.4618 69.015L84.4505 69.2277ZM81.3892 74.4658C81.2478 74.9996 81.566 75.5471 82.0999 75.6885C82.6338 75.8299 83.1812 75.5117 83.3226 74.9779L81.3892 74.4658ZM81.5559 80.4054C81.7567 79.891 81.5025 79.3111 80.9881 79.1102C80.4736 78.9094 79.8937 79.1636 79.6928 79.6781L81.5559 80.4054ZM77.3953 84.6425C77.1322 85.1281 77.3125 85.7351 77.7981 85.9982C78.2837 86.2613 78.8906 86.0809 79.1537 85.5953L77.3953 84.6425ZM76.0967 90.4356C76.4229 89.99 76.3261 89.3643 75.8804 89.038C75.4348 88.7118 74.8091 88.8086 74.4829 89.2543L76.0967 90.4356ZM70.9607 93.4007C70.5729 93.7939 70.5773 94.4271 70.9706 94.8149C71.3638 95.2026 71.997 95.1982 72.3847 94.805L70.9607 93.4007ZM68.042 98.57C68.4869 98.2427 68.5823 97.6168 68.2551 97.1719C67.9278 96.727 67.3019 96.6316 66.857 96.9588L68.042 98.57ZM62.2377 99.7898C61.7436 100.037 61.5431 100.637 61.7898 101.131C62.0365 101.625 62.6371 101.826 63.1312 101.579L62.2377 99.7898ZM57.7533 103.674C58.2845 103.523 58.5926 102.97 58.4415 102.439C58.2904 101.907 57.7372 101.599 57.206 101.75L57.7533 103.674ZM51.909 102.698C51.3582 102.738 50.9445 103.218 50.9851 103.768C51.0256 104.319 51.505 104.733 52.0558 104.692L51.909 102.698ZM46.2547 104.48C46.8008 104.563 47.3102 104.187 47.3925 103.641C47.4747 103.094 47.0987 102.585 46.5526 102.503L46.2547 104.48ZM41.4016 101.088C40.8905 100.879 40.3065 101.124 40.0973 101.635C39.888 102.146 40.1327 102.73 40.6438 102.939L41.4016 101.088ZM35.5647 100.093C36.0101 100.42 36.6359 100.323 36.9624 99.8776C37.2888 99.4321 37.1923 98.8063 36.7468 98.4799L35.5647 100.093ZM32.771 94.8702C32.3917 94.4687 31.7588 94.4506 31.3573 94.8299C30.9558 95.2091 30.9377 95.842 31.317 96.2435L32.771 94.8702ZM27.7748 91.9511C28.096 92.4004 28.7206 92.5043 29.1699 92.1831C29.6192 91.862 29.7231 91.2374 29.402 90.7881L27.7748 91.9511ZM26.6515 86.2723C26.4003 85.7805 25.7979 85.5854 25.3061 85.8366C24.8142 86.0878 24.6191 86.6901 24.8703 87.182L26.6515 86.2723ZM22.7109 82.0163C22.8846 82.5406 23.4505 82.8248 23.9747 82.6511C24.499 82.4774 24.7831 81.9115 24.6094 81.3873L22.7109 82.0163ZM23.3197 76.2531C23.224 75.7091 22.7055 75.3457 22.1616 75.4414C21.6176 75.537 21.2542 76.0555 21.3499 76.5994L23.3197 76.2531ZM20.7571 71.0563C20.78 71.6081 21.246 72.0368 21.7978 72.0138C22.3496 71.9909 22.7783 71.5249 22.7553 70.9731L20.7571 71.0563ZM22.8496 65.6458C22.8904 65.095 22.477 64.6154 21.9262 64.5746C21.3755 64.5337 20.8959 64.9471 20.855 65.4979L22.8496 65.6458ZM21.5456 59.9918C21.4506 60.5358 21.8147 61.0539 22.3587 61.1489C22.9028 61.2439 23.4208 60.8799 23.5158 60.3358L21.5456 59.9918ZM24.6644 55.0993C24.8046 54.5651 24.4852 54.0184 23.951 53.8782C23.4168 53.738 22.8701 54.0574 22.7299 54.5916L24.6644 55.0993ZM24.3247 49.308C24.1469 49.8309 24.4266 50.3989 24.9495 50.5767C25.4724 50.7545 26.0404 50.4748 26.2182 49.9519L24.3247 49.308ZM28.1116 44.9065C28.3209 44.3954 28.0763 43.8114 27.5652 43.6021C27.0541 43.3928 26.4701 43.6375 26.2608 44.1486L28.1116 44.9065ZM28.4826 39.1145C28.2467 39.6138 28.4602 40.2099 28.9596 40.4458C29.459 40.6817 30.055 40.4682 30.2909 39.9688L28.4826 39.1145ZM32.7145 35.1368C32.9732 34.6488 32.7873 34.0436 32.2994 33.7849C31.8114 33.5262 31.2061 33.7121 30.9475 34.2L32.7145 35.1368ZM33.6177 29.4067C33.3393 29.8837 33.5003 30.4961 33.9773 30.7744C34.4543 31.0528 35.0667 30.8918 35.345 30.4148L33.6177 29.4067ZM38.1623 25.7886C38.458 25.3222 38.3197 24.7043 37.8532 24.4086C37.3868 24.1128 36.7689 24.2512 36.4732 24.7176L38.1623 25.7886ZM39.4903 20.1339C39.1791 20.5901 39.2966 21.2122 39.7528 21.5235C40.209 21.8348 40.8312 21.7173 41.1424 21.261L39.4903 20.1339ZM44.265 16.8365C44.5904 16.3902 44.4925 15.7647 44.0463 15.4393C43.6 15.1139 42.9745 15.2118 42.6491 15.658L44.265 16.8365ZM45.9402 11.2853C45.6015 11.7216 45.6806 12.3498 46.1168 12.6885C46.5531 13.0272 47.1813 12.9481 47.52 12.5119L45.9402 11.2853ZM50.9096 8.27961C51.2614 7.85388 51.2015 7.22355 50.7758 6.87174C50.3501 6.51993 49.7197 6.57985 49.3679 7.00558L50.9096 8.27961ZM52.9501 2.81575C52.5836 3.22886 52.6213 3.8609 53.0344 4.22745C53.4476 4.594 54.0796 4.55626 54.4461 4.14315L52.9501 2.81575ZM13.0509 137.114C12.2644 135.6 11.4215 133.879 10.5696 131.981L8.74485 132.799C9.61366 134.736 10.4734 136.491 11.276 138.036L13.0509 137.114ZM8.39038 126.725C7.74133 125.022 7.11164 123.225 6.52359 121.347L4.61501 121.945C5.21595 123.864 5.85908 125.699 6.5215 127.437L8.39038 126.725ZM4.99823 115.866C4.56012 114.063 4.17205 112.206 3.84982 110.304L1.87791 110.638C2.20849 112.589 2.60628 114.492 3.0548 116.338L4.99823 115.866ZM3.11539 104.683C2.946 102.825 2.84796 100.935 2.8342 99.0218L0.83425 99.0362C0.848436 101.009 0.949471 102.954 1.12365 104.864L3.11539 104.683ZM3.04588 93.3675C3.20032 91.5134 3.44202 89.6442 3.78205 87.7663L1.81404 87.4099C1.46217 89.3534 1.21232 91.2862 1.05279 93.2015L3.04588 93.3675ZM5.06486 82.2622C5.57466 80.485 6.18112 78.705 6.89356 76.9275L5.03712 76.1834C4.29892 78.0252 3.67055 79.8695 3.14239 81.7107L5.06486 82.2622ZM9.25759 71.7988C10.1122 70.1662 11.0652 68.5394 12.124 66.9226L10.4509 65.8268C9.35645 67.498 8.37049 69.181 7.48568 70.8713L9.25759 71.7988ZM15.4303 62.3512C16.0142 61.6164 16.6222 60.8844 17.255 60.1557L15.745 58.8443C15.0932 59.5948 14.4666 60.3492 13.8644 61.107L15.4303 62.3512ZM17.255 60.1557C17.8966 59.417 18.5433 58.7024 19.1945 58.0116L17.7392 56.6397C17.0691 57.3505 16.4042 58.0853 15.745 58.8443L17.255 60.1557ZM23.296 54.0189C24.7689 52.7074 26.258 51.507 27.757 50.4133L26.578 48.7977C25.0258 49.9304 23.4863 51.1715 21.9661 52.5252L23.296 54.0189ZM32.5393 47.2945C34.2354 46.3151 35.9357 45.4634 37.6313 44.7331L36.8401 42.8963C35.0718 43.6579 33.3018 44.5447 31.5392 45.5625L32.5393 47.2945ZM42.9972 42.8122C44.8708 42.2753 46.7272 41.8816 48.5542 41.6221L48.273 39.642C46.3538 39.9145 44.4072 40.3277 42.4462 40.8896L42.9972 42.8122ZM54.2118 41.2388C56.1473 41.2537 58.0315 41.4212 59.848 41.7295L60.1827 39.7577C58.2591 39.4312 56.2681 39.2546 54.2272 39.2389L54.2118 41.2388ZM65.3088 43.1461C67.1172 43.79 68.8245 44.5866 70.41 45.5207L71.4252 43.7975C69.7273 42.7972 67.9043 41.9472 65.9796 41.2619L65.3088 43.1461ZM74.9227 48.8488C76.3118 50.1224 77.5407 51.5324 78.5856 53.0613L80.2368 51.9328C79.1028 50.2735 77.7724 48.7482 76.2742 47.3746L74.9227 48.8488ZM81.1508 58.0023C81.7884 59.7121 82.2292 61.5223 82.4494 63.418L84.436 63.1872C84.1972 61.1317 83.7186 59.1644 83.0248 57.3035L81.1508 58.0023ZM82.4618 69.015C82.3643 69.9272 82.2182 70.8544 82.0213 71.7951L83.9789 72.2049C84.1892 71.2002 84.3457 70.2073 84.4505 69.2277L82.4618 69.015ZM82.0213 71.7951C81.8309 72.7048 81.6199 73.595 81.3892 74.4658L83.3226 74.9779C83.5623 74.0729 83.7814 73.1485 83.9789 72.2049L82.0213 71.7951ZM79.6928 79.6781C79.0088 81.4302 78.239 83.0854 77.3953 84.6425L79.1537 85.5953C80.0376 83.9641 80.8421 82.2336 81.5559 80.4054L79.6928 79.6781ZM74.4829 89.2543C73.3806 90.76 72.2012 92.1426 70.9607 93.4007L72.3847 94.805C73.6948 93.4765 74.9374 92.0192 76.0967 90.4356L74.4829 89.2543ZM66.857 96.9588C65.3644 98.0567 63.8175 99.0009 62.2377 99.7898L63.1312 101.579C64.8148 100.738 66.459 99.7342 68.042 98.57L66.857 96.9588ZM57.206 101.75C55.4438 102.252 53.6692 102.568 51.909 102.698L52.0558 104.692C53.9556 104.552 55.8643 104.211 57.7533 103.674L57.206 101.75ZM46.5526 102.503C44.7824 102.236 43.0558 101.766 41.4016 101.088L40.6438 102.939C42.4496 103.679 44.3308 104.191 46.2547 104.48L46.5526 102.503ZM36.7468 98.4799C36.0353 97.9585 35.3461 97.3883 34.6824 96.7689L33.3178 98.2311C34.039 98.9041 34.7891 99.5247 35.5647 100.093L36.7468 98.4799ZM34.6824 96.7689C34.0132 96.1443 33.3764 95.5112 32.771 94.8702L31.317 96.2435C31.9517 96.9155 32.6184 97.5782 33.3178 98.2311L34.6824 96.7689ZM29.402 90.7881C28.3488 89.3147 27.4355 87.8075 26.6515 86.2723L24.8703 87.182C25.6996 88.8057 26.6644 90.3974 27.7748 91.9511L29.402 90.7881ZM24.6094 81.3873C24.0508 79.7014 23.6247 77.9879 23.3197 76.2531L21.3499 76.5994C21.6711 78.4261 22.1205 80.2343 22.7109 82.0163L24.6094 81.3873ZM22.7553 70.9731C22.682 69.2103 22.7171 67.4324 22.8496 65.6458L20.855 65.4979C20.7172 67.356 20.6803 69.2113 20.7571 71.0563L22.7553 70.9731ZM23.5158 60.3358C23.8208 58.5895 24.2071 56.8419 24.6644 55.0993L22.7299 54.5916C22.2596 56.3842 21.8609 58.1864 21.5456 59.9918L23.5158 60.3358ZM26.2182 49.9519C26.7947 48.2566 27.4292 46.5729 28.1116 44.9065L26.2608 44.1486C25.5642 45.8497 24.9152 47.5715 24.3247 49.308L26.2182 49.9519ZM30.2909 39.9688C31.0644 38.3317 31.8757 36.719 32.7145 35.1368L30.9475 34.2C30.0953 35.8075 29.27 37.4477 28.4826 39.1145L30.2909 39.9688ZM35.345 30.4148C36.2702 28.8297 37.2133 27.2853 38.1623 25.7886L36.4732 24.7176C35.512 26.2336 34.556 27.799 33.6177 29.4067L35.345 30.4148ZM41.1424 21.261C42.1978 19.7142 43.2443 18.2361 44.265 16.8365L42.6491 15.658C41.6169 17.0734 40.5583 18.5686 39.4903 20.1339L41.1424 21.261ZM47.52 12.5119C48.7362 10.9455 49.8782 9.52775 50.9096 8.27961L49.3679 7.00558C48.3246 8.26812 47.1698 9.70168 45.9402 11.2853L47.52 12.5119ZM54.4461 4.14315C55.0115 3.50599 55.4578 3.01577 55.7618 2.68577C55.9139 2.52077 56.0303 2.39583 56.1084 2.31263C56.1474 2.27102 56.1767 2.23985 56.1961 2.21932C56.2058 2.20905 56.2131 2.20145 56.2177 2.19653C56.2201 2.19407 56.2218 2.19228 56.2228 2.19117C56.2234 2.19061 56.2237 2.19022 56.2239 2.19C56.224 2.18989 56.2241 2.18983 56.2241 2.1898C56.2241 2.18979 56.2241 2.18979 56.2241 2.1898C56.2241 2.1898 56.2241 2.18982 56.2241 2.18982C56.2241 2.18983 56.2241 2.18985 55.5001 1.5C54.7762 0.810145 54.7761 0.81017 54.7761 0.810198C54.7761 0.810211 54.7761 0.810241 54.7761 0.810267C54.776 0.810318 54.776 0.81038 54.7759 0.810452C54.7757 0.810597 54.7756 0.810784 54.7753 0.811014C54.7749 0.811473 54.7743 0.812102 54.7736 0.8129C54.772 0.814496 54.7699 0.816769 54.7671 0.819715C54.7615 0.825607 54.7533 0.834193 54.7427 0.845446C54.7214 0.867953 54.6902 0.90113 54.6493 0.944772C54.5674 1.03205 54.447 1.1612 54.291 1.33053C53.979 1.6692 53.5243 2.16871 52.9501 2.81575L54.4461 4.14315Z" fill="white" fill-opacity="0.32"/>
</svg>
