<svg width="172" height="175" viewBox="0 0 172 175" fill="none" xmlns="http://www.w3.org/2000/svg">
<g filter="url(#filter0_d_651_943)">
<rect x="18" width="136" height="136" rx="59.1304" fill="#040A14"/>
<rect x="25.3913" y="7.3913" width="121.217" height="121.217" rx="51.7391" stroke="#161935" stroke-width="14.7826"/>
<path d="M79.4782 54.5555C79.6238 56.6533 82.0207 57.802 83.7532 56.6102C85.2771 55.5611 87.3575 56.6538 87.3575 58.5054V66.1234H93.0646C92.051 61.9847 95.3325 57.9527 99.6976 58.2541C103.538 58.5202 106.386 62.2183 105.427 66.1234H111.192C116.016 58.8303 111.158 48.2787 101.758 47.7961C102.821 42.1832 98.4929 37.0095 92.8213 37.0095C90.7725 37.0095 88.8798 37.6906 87.3575 38.8378V50.2076C87.3575 52.0579 85.2787 53.1525 83.7529 52.1029C81.8991 50.8275 79.3175 52.2363 79.4782 54.5555Z" fill="url(#paint0_linear_651_943)"/>
<path d="M67.6865 66.1235C69.5372 66.1235 70.6315 68.2028 69.5815 69.7283C68.3121 71.5728 69.7059 74.1624 72.0349 74.0016C74.1376 73.8558 75.2806 71.457 74.0902 69.7278C73.0407 68.203 74.1344 66.1235 75.9856 66.1235H83.726V60.5356C79.8121 61.4971 76.1212 58.6382 75.8554 54.8066C75.554 50.4599 79.5692 47.1566 83.726 48.1744V38.8378C77.2095 33.9268 67.8741 39.5344 69.3041 47.6758C59.8483 48.1783 55.063 58.7527 59.9284 66.1235H67.6865ZM111.131 69.7552H103.397C101.546 69.7552 100.452 67.6754 101.502 66.1507C102.693 64.4208 101.547 62.0228 99.4465 61.8771C97.1178 61.7154 95.7232 64.305 96.9931 66.1504C98.0428 67.6759 96.9493 69.7552 95.0981 69.7552H87.3577V75.3399C91.5026 74.325 95.5304 77.6148 95.2283 81.972C94.9624 85.8051 91.2705 88.6617 87.3577 87.7011V97.1622C93.8742 102.073 103.21 96.4656 101.78 88.3242C111.008 87.8336 116.138 77.4802 111.131 69.7552Z" fill="url(#paint1_linear_651_943)"/>
<path d="M103.397 69.7556H111.131C116.138 77.4806 111.008 87.834 101.78 88.3245C103.21 96.466 93.8742 102.074 87.3577 97.1626V87.7015C91.2704 88.662 94.9623 85.8054 95.2283 81.9723C95.5304 77.6151 91.5026 74.3254 87.3577 75.3403V69.7556H95.0981C96.9492 69.7556 98.0427 67.6763 96.9931 66.1507C95.7232 64.3054 97.1178 61.7158 99.4464 61.8775C101.547 62.0231 102.693 64.4211 101.502 66.1511C100.452 67.6758 101.545 69.7556 103.397 69.7556Z" fill="url(#paint2_linear_651_943)"/>
<path d="M91.6052 81.7209C91.7659 79.4029 89.1844 77.9928 87.3306 79.2686C85.8056 80.3172 83.7259 79.2253 83.7259 77.3734V69.7555H78.0157C79.0042 73.7782 75.9401 77.6409 71.8279 77.6409C67.677 77.6409 64.6793 73.7294 65.653 69.7555H59.9289C55.0662 77.1254 59.8421 87.7172 69.3257 88.2042C68.2628 93.817 72.5906 98.9908 78.2622 98.9908C80.311 98.9908 82.2037 98.3097 83.726 97.1625V85.6713C83.726 83.8212 85.8049 82.7263 87.3302 83.776C89.0592 84.9659 91.4594 83.8231 91.6052 81.7209Z" fill="url(#paint3_linear_651_943)"/>
<circle cx="85.6094" cy="67.9032" r="11.9156" fill="#040A14"/>
<circle cx="85.6094" cy="67.9032" r="9.20312" fill="url(#paint4_linear_651_943)"/>
<path d="M81.7935 72.5751H79.6743L82.4268 64.4172H85.0519L87.8044 72.5751H85.6852L83.7692 66.4726H83.7055L81.7935 72.5751ZM81.5107 69.3645H85.9401V70.8622H81.5107V69.3645ZM90.6544 64.4172V72.5751H88.6827V64.4172H90.6544Z" fill="white"/>
</g>
<defs>
<filter id="filter0_d_651_943" x="0.26087" y="0" width="171.478" height="174.435" filterUnits="userSpaceOnUse" color-interpolation-filters="sRGB">
<feFlood flood-opacity="0" result="BackgroundImageFix"/>
<feColorMatrix in="SourceAlpha" type="matrix" values="0 0 0 0 0 0 0 0 0 0 0 0 0 0 0 0 0 0 127 0" result="hardAlpha"/>
<feOffset dy="20.6957"/>
<feGaussianBlur stdDeviation="8.86957"/>
<feComposite in2="hardAlpha" operator="out"/>
<feColorMatrix type="matrix" values="0 0 0 0 0 0 0 0 0 0 0 0 0 0 0 0 0 0 0.15 0"/>
<feBlend mode="normal" in2="BackgroundImageFix" result="effect1_dropShadow_651_943"/>
<feBlend mode="normal" in="SourceGraphic" in2="effect1_dropShadow_651_943" result="shape"/>
</filter>
<linearGradient id="paint0_linear_651_943" x1="96.277" y1="37.0095" x2="96.277" y2="66.1234" gradientUnits="userSpaceOnUse">
<stop stop-color="#EC9645"/>
<stop offset="0.497263" stop-color="#E98A3F"/>
<stop offset="1" stop-color="#E76E3D"/>
</linearGradient>
<linearGradient id="paint1_linear_651_943" x1="85.5443" y1="37" x2="85.5443" y2="99" gradientUnits="userSpaceOnUse">
<stop stop-color="#A425D9"/>
<stop offset="0.524959" stop-color="#951BD5"/>
<stop offset="1" stop-color="#6C0DA9"/>
</linearGradient>
<linearGradient id="paint2_linear_651_943" x1="100.223" y1="61.8702" x2="100.223" y2="99.0004" gradientUnits="userSpaceOnUse">
<stop stop-color="#4629BA"/>
<stop offset="0.524959" stop-color="#4922B9"/>
<stop offset="1" stop-color="#401896"/>
</linearGradient>
<linearGradient id="paint3_linear_651_943" x1="74.8067" y1="69.7555" x2="74.8067" y2="98.9908" gradientUnits="userSpaceOnUse">
<stop stop-color="#E15241"/>
<stop offset="0.497263" stop-color="#DA4943"/>
<stop offset="1" stop-color="#D9433E"/>
</linearGradient>
<linearGradient id="paint4_linear_651_943" x1="85.6094" y1="58.7001" x2="85.6094" y2="77.1063" gradientUnits="userSpaceOnUse">
<stop stop-color="#47A081"/>
<stop offset="1" stop-color="#3A725E"/>
</linearGradient>
</defs>
</svg>
