<svg width="132" height="159" viewBox="0 0 132 159" fill="none" xmlns="http://www.w3.org/2000/svg">
<g filter="url(#filter0_d_651_532)">
<g clip-path="url(#clip0_651_532)">
<rect x="14" y="24.8948" width="104.105" height="104.105" rx="45.2632" fill="#FAA000"/>
<path style="mix-blend-mode:screen" d="M75.3188 138.007C75.3188 146.78 71.6291 169.737 67.0806 169.737C62.5322 169.737 58.8424 146.77 58.8424 138.007C58.8424 130.288 62.5322 128.426 67.0806 128.426C71.6291 128.426 75.3188 130.288 75.3188 138.007Z" fill="url(#paint0_linear_651_532)"/>
<path style="mix-blend-mode:screen" d="M74.8647 137.902C74.8647 146.465 71.3698 169.198 67.0659 169.198C62.7621 169.198 59.2671 146.465 59.2671 137.902C59.2671 130.363 62.7621 128.546 67.0659 128.546C71.3698 128.546 74.8647 130.363 74.8647 137.902Z" fill="url(#paint1_linear_651_532)"/>
<path style="mix-blend-mode:screen" d="M74.4351 137.793C74.4351 146.146 71.1448 168.663 67.0806 168.663C63.0164 168.663 59.7211 146.146 59.7211 137.793C59.7211 130.443 63.0164 128.671 67.0806 128.671C71.1448 128.671 74.4351 130.443 74.4351 137.793Z" fill="url(#paint2_linear_651_532)"/>
<path style="mix-blend-mode:screen" d="M73.9951 137.688C73.9951 145.831 70.8996 168.144 67.08 168.144C63.2605 168.144 60.1599 145.846 60.1599 137.688C60.1599 130.518 63.2605 128.791 67.08 128.791C70.8996 128.791 73.9951 130.518 73.9951 137.688Z" fill="url(#paint3_linear_651_532)"/>
<path style="mix-blend-mode:screen" d="M73.5562 137.583C73.5562 145.517 70.6553 167.595 67.0655 167.595C63.4756 167.595 60.5747 145.517 60.5747 137.583C60.5747 130.593 63.4756 128.911 67.0655 128.911C70.6553 128.911 73.5562 130.593 73.5562 137.583Z" fill="url(#paint4_linear_651_532)"/>
<path d="M73.7109 126.045H60.5248V127.907C60.5248 127.907 60.5248 127.942 60.5248 127.957C60.5248 130.079 63.4756 131.796 67.1204 131.796C70.7652 131.796 73.7109 130.079 73.7109 127.957C73.7109 127.957 73.7109 127.922 73.7109 127.907V126.045Z" fill="url(#paint5_linear_651_532)"/>
<path d="M50.0199 82.4612C48.9814 87.1295 43.629 103.107 40.0342 102.308C36.4393 101.509 35.7204 84.2786 36.9985 79.5653C38.097 75.5011 41.3273 73.4091 44.9222 74.208C48.517 75.0068 50.9336 78.3521 50.0199 82.4612Z" fill="url(#paint6_linear_651_532)"/>
<path d="M73.7109 126.074C73.7109 128.191 70.7552 129.908 67.1204 129.908C63.4856 129.908 60.5248 128.191 60.5248 126.074C60.5248 123.957 63.4756 122.234 67.1204 122.234C70.7652 122.234 73.7109 123.952 73.7109 126.074Z" fill="url(#paint7_linear_651_532)"/>
<path d="M96.4536 77.9187C96.4536 94.1405 83.3025 128.112 67.0807 128.112C50.8589 128.112 37.7028 94.1604 37.7028 77.9187C37.7028 63.6342 50.8539 60.1941 67.0807 60.1941C83.3074 60.1941 96.4536 63.6342 96.4536 77.9187Z" fill="url(#paint8_linear_651_532)"/>
<path style="mix-blend-mode:multiply" d="M96.4536 77.9187C96.4536 94.1405 83.3025 128.112 67.0807 128.112C50.8589 128.112 37.7028 94.1604 37.7028 77.9187C37.7028 63.6342 50.8539 60.1941 67.0807 60.1941C83.3074 60.1941 96.4536 63.6342 96.4536 77.9187Z" fill="url(#paint9_radial_651_532)"/>
<path opacity="0.07" d="M95.6196 75.482C95.6196 84.6389 82.8679 92.0632 67.1604 92.0632C51.4529 92.0632 38.6762 84.6389 38.6762 75.482C38.6762 66.3251 51.398 58.8958 67.1404 58.8958C82.8829 58.8958 95.6196 66.3201 95.6196 75.482Z" fill="url(#paint10_linear_651_532)"/>
<path opacity="0.15" d="M95.2603 75.3673C95.2603 84.4143 82.6633 91.7488 67.1256 91.7488C51.5878 91.7488 38.9958 84.4143 38.9958 75.3673C38.9958 66.3202 51.5928 58.9857 67.1256 58.9857C82.6583 58.9857 95.2603 66.3202 95.2603 75.3673Z" fill="url(#paint11_linear_651_532)"/>
<path opacity="0.22" d="M94.9009 75.2471C94.9009 84.1843 82.4637 91.429 67.1157 91.429C51.7677 91.429 39.3305 84.1843 39.3305 75.2471C39.3305 66.3099 51.7727 59.0653 67.1157 59.0653C82.4587 59.0653 94.9009 66.3149 94.9009 75.2471Z" fill="url(#paint12_linear_651_532)"/>
<path opacity="0.29" d="M94.5459 75.138C94.5459 83.9654 82.2585 91.1151 67.0852 91.1151C51.912 91.1151 39.6246 83.9604 39.6246 75.138C39.6246 66.3156 51.912 59.1609 67.0852 59.1609C82.2585 59.1609 94.5459 66.3156 94.5459 75.138Z" fill="url(#paint13_linear_651_532)"/>
<path opacity="0.36" d="M94.1865 75.0272C94.1865 83.7397 82.0589 90.7996 67.0953 90.7996C52.1318 90.7996 40.0041 83.7397 40.0041 75.0272C40.0041 66.3147 52.1318 59.2698 67.0953 59.2698C82.0589 59.2698 94.1865 66.3097 94.1865 75.0272Z" fill="url(#paint14_linear_651_532)"/>
<path opacity="0.44" d="M93.8374 74.9132C93.8374 83.5109 81.8546 90.4859 67.0957 90.4859C52.3369 90.4859 40.349 83.496 40.349 74.9132C40.349 66.3305 52.3319 59.3356 67.0957 59.3356C81.8596 59.3356 93.8374 66.3106 93.8374 74.9132Z" fill="url(#paint15_linear_651_532)"/>
<path opacity="0.51" d="M93.4722 74.7974C93.4722 83.2853 81.6541 90.1704 67.07 90.1704C52.4859 90.1704 40.6728 83.2853 40.6728 74.7974C40.6728 66.3096 52.4909 59.4244 67.07 59.4244C81.6491 59.4244 93.4722 66.3046 93.4722 74.7974Z" fill="url(#paint16_linear_651_532)"/>
<path opacity="0.58" d="M67.0601 89.8517C52.6716 89.8517 41.0074 83.0606 41.0074 74.6834C41.0074 66.3062 52.6716 59.5151 67.0601 59.5151C81.4486 59.5151 93.1128 66.3062 93.1128 74.6834C93.1128 83.0606 81.4486 89.8517 67.0601 89.8517Z" fill="url(#paint17_linear_651_532)"/>
<path opacity="0.65" d="M92.7534 74.5683C92.7534 82.8364 81.2449 89.5468 67.0502 89.5468C52.8556 89.5468 41.3471 82.8464 41.3471 74.5683C41.3471 66.2901 52.8306 59.5897 67.0502 59.5897C81.2699 59.5897 92.7534 66.3051 92.7534 74.5683Z" fill="url(#paint18_linear_651_532)"/>
<path opacity="0.73" d="M92.394 74.4585C92.394 82.6119 81.0453 89.2224 67.0404 89.2224C53.0354 89.2224 41.6817 82.6119 41.6817 74.4585C41.6817 66.3052 53.0354 59.6897 67.0404 59.6897C81.0453 59.6897 92.394 66.3002 92.394 74.4585Z" fill="url(#paint19_linear_651_532)"/>
<path opacity="0.8" d="M67.0255 88.908C53.2133 88.908 42.0163 82.3875 42.0163 74.3439C42.0163 66.3004 53.2133 59.7798 67.0255 59.7798C80.8377 59.7798 92.0347 66.3004 92.0347 74.3439C92.0347 82.3875 80.8377 88.908 67.0255 88.908Z" fill="url(#paint20_linear_651_532)"/>
<path style="mix-blend-mode:multiply" opacity="0.05" d="M94.7153 71.1681C94.7153 79.0018 83.811 85.3528 70.3552 85.3528C56.8995 85.3528 46.0001 79.0018 46.0001 71.1681C46.0001 63.3343 56.8895 56.9834 70.3702 56.9834C83.8509 56.9834 94.7153 63.3343 94.7153 71.1681Z" fill="url(#paint21_linear_651_532)"/>
<path style="mix-blend-mode:multiply" opacity="0.09" d="M94.0171 71.2135C94.0171 78.8376 83.3973 85.0237 70.3011 85.0237C57.2048 85.0237 46.59 78.8376 46.59 71.2135C46.59 63.5895 57.2048 57.4033 70.3011 57.4033C83.3973 57.4033 94.0171 63.5845 94.0171 71.2135Z" fill="url(#paint22_linear_651_532)"/>
<path style="mix-blend-mode:multiply" opacity="0.14" d="M93.3379 71.2529C93.3379 78.6723 83.0077 84.6887 70.2659 84.6887C57.5242 84.6887 47.194 78.6723 47.194 71.2529C47.194 63.8335 57.5242 57.8221 70.2659 57.8221C83.0077 57.8221 93.3379 63.8335 93.3379 71.2529Z" fill="url(#paint23_linear_651_532)"/>
<path style="mix-blend-mode:multiply" opacity="0.18" d="M92.6187 71.2979C92.6187 78.5125 82.578 84.3592 70.1908 84.3592C57.8035 84.3592 47.7629 78.5125 47.7629 71.2979C47.7629 64.0832 57.8035 58.2366 70.1908 58.2366C82.578 58.2366 92.6187 64.0832 92.6187 71.2979Z" fill="url(#paint24_linear_651_532)"/>
<path style="mix-blend-mode:multiply" opacity="0.23" d="M91.9199 71.3383C91.9199 78.3283 82.1639 84.0252 70.1311 84.0252C58.0984 84.0252 48.3523 78.3483 48.3523 71.3383C48.3523 64.3284 58.1034 58.6565 70.1311 58.6565C82.1589 58.6565 91.9199 64.3334 91.9199 71.3383Z" fill="url(#paint25_linear_651_532)"/>
<path style="mix-blend-mode:multiply" opacity="0.27" d="M91.2207 71.3832C91.2207 78.1834 81.7343 83.6955 70.076 83.6955C58.4177 83.6955 48.9363 78.2034 48.9363 71.3832C48.9363 64.5629 58.4227 59.0708 70.076 59.0708C81.7293 59.0708 91.2207 64.5829 91.2207 71.3832Z" fill="url(#paint26_linear_651_532)"/>
<path style="mix-blend-mode:multiply" opacity="0.32" d="M90.522 71.4225C90.522 78.0181 81.3451 83.3604 70.0213 83.3604C58.6976 83.3604 49.5257 78.0181 49.5257 71.4225C49.5257 64.827 58.7026 59.4896 70.0213 59.4896C81.3401 59.4896 90.522 64.832 90.522 71.4225Z" fill="url(#paint27_linear_651_532)"/>
<path style="mix-blend-mode:multiply" opacity="0.36" d="M89.8179 71.4669C89.8179 77.8527 80.9306 83.0303 69.9663 83.0303C59.002 83.0303 50.1098 77.8527 50.1098 71.4669C50.1098 65.081 59.002 59.9084 69.9663 59.9084C80.9306 59.9084 89.8179 65.081 89.8179 71.4669Z" fill="url(#paint28_linear_651_532)"/>
<path style="mix-blend-mode:multiply" opacity="0.41" d="M89.1187 71.5125C89.1187 77.6886 80.521 82.6964 69.9112 82.6964C59.3014 82.6964 50.6987 77.7036 50.6987 71.5125C50.6987 65.3213 59.3014 60.3235 69.9112 60.3235C80.521 60.3235 89.1187 65.3313 89.1187 71.5125Z" fill="url(#paint29_linear_651_532)"/>
<path style="mix-blend-mode:multiply" opacity="0.45" d="M88.4199 71.5527C88.4199 77.5442 80.1118 82.3673 69.8565 82.3673C59.6012 82.3673 51.2881 77.5242 51.2881 71.5527C51.2881 65.5813 59.6012 60.7682 69.8715 60.7682C80.1418 60.7682 88.4199 65.5813 88.4199 71.5527Z" fill="url(#paint30_linear_651_532)"/>
<path style="mix-blend-mode:multiply" opacity="0.5" d="M87.7207 71.5973C87.7207 77.359 79.6972 82.0323 69.7964 82.0323C59.8956 82.0323 51.8721 77.359 51.8721 71.5973C51.8721 65.8355 59.8956 61.1572 69.7964 61.1572C79.6972 61.1572 87.7207 65.8305 87.7207 71.5973Z" fill="url(#paint31_linear_651_532)"/>
<path d="M101.726 48.006C101.727 54.8278 99.7046 61.4967 95.9153 67.1693C92.126 72.8419 86.7397 77.2634 80.4374 79.8747C74.1352 82.486 67.2001 83.1697 60.5093 81.8394C53.8184 80.5092 47.6723 77.2247 42.8482 72.4013C38.0241 67.5779 34.7387 61.4323 33.4075 54.7416C32.0763 48.0509 32.759 41.1158 35.3694 34.8132C37.9797 28.5105 42.4005 23.1235 48.0725 19.3334C53.7446 15.5434 60.4132 13.5204 67.235 13.5204C76.3816 13.5204 85.1537 17.1535 91.6218 23.6207C98.0899 30.0878 101.724 38.8594 101.726 48.006Z" fill="url(#paint32_radial_651_532)"/>
<path d="M35.5358 51.0563C42.7557 59.8041 52.9091 65.6296 64.1048 67.4479C64.8146 67.5661 65.5415 67.5283 66.2351 67.337C66.9287 67.1458 67.5723 66.8057 68.1212 66.3405C68.67 65.8753 69.111 65.2961 69.4132 64.6432C69.7155 63.9903 69.8719 63.2794 69.8716 62.5599V53.5727C69.8701 51.6139 69.2382 49.7076 68.0692 48.1358C66.9003 46.564 65.2564 45.4103 63.3809 44.8452C55.2836 42.3881 47.9314 37.9404 41.9965 31.9088C41.6686 31.5777 41.268 31.3277 40.8266 31.1786C40.3851 31.0295 39.915 30.9855 39.4535 31.0499C38.9921 31.1144 38.552 31.2856 38.1683 31.55C37.7846 31.8144 37.4679 32.1646 37.2433 32.5728C35.2866 36.2758 34.0354 40.3104 33.5536 44.4708C33.4254 45.6453 33.5348 46.8337 33.8753 47.965C34.2158 49.0964 34.7805 50.1477 35.5358 51.0563Z" fill="url(#paint33_linear_651_532)"/>
<path d="M44.4678 46.8626C44.4678 48.4903 43.3144 49.1494 41.8965 48.3305C41.1486 47.845 40.5257 47.1901 40.0781 46.419C39.6305 45.6478 39.3708 44.7821 39.3201 43.8919C39.3201 42.2592 40.4735 41.6052 41.8965 42.424C42.6436 42.9098 43.2658 43.5649 43.7126 44.336C44.1593 45.1072 44.418 45.9728 44.4678 46.8626Z" fill="#2AF6FF"/>
<path d="M59.2769 55.4205C59.2769 57.0531 58.1235 57.7122 56.7005 56.8884C55.9534 56.4026 55.3312 55.7475 54.8844 54.9763C54.4377 54.2052 54.179 53.3396 54.1292 52.4497C54.1292 50.8221 55.2826 50.163 56.7005 50.9818C57.4484 51.4674 58.0713 52.1222 58.5189 52.8934C58.9665 53.6645 59.2262 54.5303 59.2769 55.4205Z" fill="#2AF6FF"/>
<path d="M95.5996 96.4767C95.5996 98.0636 95.129 99.6149 94.2474 100.934C93.3658 102.254 92.1127 103.282 90.6466 103.889C89.1805 104.497 87.5672 104.656 86.0108 104.346C84.4544 104.036 83.0247 103.272 81.9026 102.15C80.7805 101.028 80.0164 99.5985 79.7068 98.0421C79.3972 96.4856 79.5561 94.8724 80.1633 93.4063C80.7706 91.9402 81.799 90.6871 83.1185 89.8055C84.4379 88.9238 85.9892 88.4532 87.5761 88.4532C89.7041 88.4532 91.7449 89.2986 93.2496 90.8033C94.7543 92.308 95.5996 94.3488 95.5996 96.4767Z" fill="url(#paint34_radial_651_532)"/>
<path d="M94.7457 100.037C93.7472 106.074 85.2593 119.335 81.6595 118.536C78.0596 117.737 81.27 101.4 82.3085 96.732C83.2222 92.6229 86.6373 90.5758 90.2322 91.3746C93.827 92.1735 95.4497 95.8832 94.7457 100.037Z" fill="url(#paint35_linear_651_532)"/>
<path style="mix-blend-mode:multiply" d="M94.7457 100.037C93.7472 106.074 85.2593 119.335 81.6595 118.536C78.0596 117.737 81.27 101.4 82.3085 96.732C83.2222 92.6229 86.6373 90.5758 90.2322 91.3746C93.827 92.1735 95.4497 95.8832 94.7457 100.037Z" fill="url(#paint36_radial_651_532)"/>
<path style="mix-blend-mode:color-dodge" d="M88.7892 98.5486C88.4397 103.317 82.8877 116.738 81.7343 116.653C80.581 116.568 82.4932 104.46 83.1473 99.3324C83.6815 95.1534 84.9597 93.0365 86.0531 92.677C89.1837 91.6485 89.0988 94.3496 88.7892 98.5486Z" fill="url(#paint37_radial_651_532)"/>
<path style="mix-blend-mode:color-dodge" d="M94.0019 100.666C92.5041 107.726 85.2595 117.108 84.1261 116.888C82.9927 116.668 89.4584 107.202 90.7117 102.209C91.7102 98.1248 90.7566 93.9708 91.885 93.7211C95.1153 93.0771 94.8357 96.5421 94.0019 100.666Z" fill="url(#paint38_radial_651_532)"/>
<path d="M77.4258 18.3887H56.7903V19.8865V19.9714C56.7903 23.2916 61.4087 25.9628 67.1106 25.9628C72.8124 25.9628 77.4258 23.2717 77.4258 19.9714V19.8865V18.3887Z" fill="url(#paint39_linear_651_532)"/>
<path style="mix-blend-mode:color-dodge" d="M81.9741 38.1904C81.9731 42.5126 80.6905 46.7375 78.2883 50.3308C75.8862 53.924 72.4725 56.7243 68.4789 58.3774C64.4852 60.0306 60.0911 60.4624 55.8521 59.6182C51.6131 58.774 47.7196 56.6917 44.664 53.6347C41.6084 50.5777 39.5279 46.6833 38.6857 42.4439C37.8434 38.2045 38.2772 33.8106 39.9322 29.8177C41.5871 25.8248 44.3889 22.4124 47.9833 20.0119C51.5777 17.6114 55.8032 16.3307 60.1254 16.3317C62.9955 16.3317 65.8374 16.8971 68.4889 17.9958C71.1403 19.0944 73.5493 20.7046 75.5783 22.7345C77.6073 24.7644 79.2164 27.1742 80.3138 29.8261C81.4113 32.4781 81.9754 35.3203 81.9741 38.1904Z" fill="url(#paint40_radial_651_532)"/>
<path style="mix-blend-mode:color-dodge" d="M51.438 45.1452C51.438 47.0569 50.8711 48.9258 49.8089 50.5154C48.7468 52.105 47.2372 53.3439 45.4709 54.0755C43.7047 54.8071 41.7611 54.9985 39.8861 54.6256C38.011 54.2526 36.2887 53.332 34.9368 51.9802C33.585 50.6283 32.6644 48.906 32.2914 47.0309C31.9184 45.1559 32.1099 43.2123 32.8415 41.4461C33.5731 39.6798 34.812 38.1702 36.4016 37.108C37.9912 36.0459 39.86 35.479 41.7718 35.479C44.3355 35.479 46.7941 36.4974 48.6068 38.3102C50.4196 40.1229 51.438 42.5815 51.438 45.1452Z" fill="url(#paint41_radial_651_532)"/>
<path style="mix-blend-mode:color-dodge" d="M66.5112 54.0375C66.5112 55.9493 65.9443 57.8181 64.8822 59.4077C63.8201 60.9973 62.3104 62.2362 60.5442 62.9679C58.7779 63.6995 56.8344 63.8909 54.9593 63.5179C53.0843 63.1449 51.3619 62.2243 50.0101 60.8725C48.6582 59.5207 47.7376 57.7983 47.3647 55.9233C46.9917 54.0482 47.1831 52.1047 47.9147 50.3384C48.6463 48.5721 49.8853 47.0625 51.4748 46.0004C53.0644 44.9383 54.9333 44.3713 56.8451 44.3713C59.4087 44.3713 61.8673 45.3897 63.6801 47.2025C65.4928 49.0152 66.5112 51.4739 66.5112 54.0375Z" fill="url(#paint42_radial_651_532)"/>
<path style="mix-blend-mode:color-dodge" d="M51.7968 90.3704C55.7162 106.113 63.8346 124.242 61.9074 125.121C58.5072 126.658 45.1514 108.854 41.232 93.1115C37.7819 79.2513 39.4146 62.9547 42.9994 62.0659C46.5843 61.1772 48.3468 76.5103 51.7968 90.3704Z" fill="url(#paint43_radial_651_532)"/>
<path d="M43.3041 67.9575L40.8077 63.6837C40.3084 62.8349 40.8077 62.1858 41.4817 62.8449L44.9068 66.1801C45.6731 67.0019 46.6677 67.5757 47.7628 67.8277L51.1529 68.4069C51.807 68.5167 52.3212 69.75 51.8319 70.0296L49.3355 71.4426C47.6729 72.3912 44.9668 70.8334 43.3041 67.9575Z" fill="url(#paint44_linear_651_532)"/>
</g>
<rect x="19.6579" y="30.5527" width="92.7895" height="92.7895" rx="39.6053" stroke="#0D1227" stroke-width="11.3158"/>
</g>
<g clip-path="url(#clip1_651_532)">
<path d="M50.0199 82.4612C48.9814 87.1295 43.629 103.107 40.0342 102.308C36.4393 101.509 35.7204 84.2786 36.9985 79.5653C38.097 75.5011 41.3273 73.4091 44.9222 74.208C48.517 75.0068 50.9336 78.3521 50.0199 82.4612Z" fill="url(#paint45_linear_651_532)"/>
<path d="M96.4536 77.9187C96.4536 94.1405 83.3025 128.112 67.0807 128.112C50.8589 128.112 37.7028 94.1604 37.7028 77.9187C37.7028 63.6342 50.8539 60.1941 67.0807 60.1941C83.3074 60.1941 96.4536 63.6342 96.4536 77.9187Z" fill="url(#paint46_linear_651_532)"/>
<path style="mix-blend-mode:multiply" d="M96.4536 77.9187C96.4536 94.1405 83.3025 128.112 67.0807 128.112C50.8589 128.112 37.7028 94.1604 37.7028 77.9187C37.7028 63.6342 50.8539 60.1941 67.0807 60.1941C83.3074 60.1941 96.4536 63.6342 96.4536 77.9187Z" fill="url(#paint47_radial_651_532)"/>
<path opacity="0.07" d="M95.6196 75.482C95.6196 84.6389 82.8679 92.0632 67.1604 92.0632C51.4529 92.0632 38.6762 84.6389 38.6762 75.482C38.6762 66.3251 51.398 58.8958 67.1404 58.8958C82.8829 58.8958 95.6196 66.3201 95.6196 75.482Z" fill="url(#paint48_linear_651_532)"/>
<path opacity="0.15" d="M95.2603 75.3673C95.2603 84.4143 82.6633 91.7488 67.1256 91.7488C51.5878 91.7488 38.9958 84.4143 38.9958 75.3673C38.9958 66.3202 51.5928 58.9857 67.1256 58.9857C82.6583 58.9857 95.2603 66.3202 95.2603 75.3673Z" fill="url(#paint49_linear_651_532)"/>
<path opacity="0.22" d="M94.9009 75.2471C94.9009 84.1843 82.4637 91.429 67.1157 91.429C51.7677 91.429 39.3305 84.1843 39.3305 75.2471C39.3305 66.3099 51.7727 59.0653 67.1157 59.0653C82.4587 59.0653 94.9009 66.3149 94.9009 75.2471Z" fill="url(#paint50_linear_651_532)"/>
<path opacity="0.29" d="M94.5459 75.138C94.5459 83.9654 82.2585 91.1151 67.0852 91.1151C51.912 91.1151 39.6246 83.9604 39.6246 75.138C39.6246 66.3156 51.912 59.1609 67.0852 59.1609C82.2585 59.1609 94.5459 66.3156 94.5459 75.138Z" fill="url(#paint51_linear_651_532)"/>
<path opacity="0.36" d="M94.1865 75.0272C94.1865 83.7397 82.0589 90.7996 67.0953 90.7996C52.1318 90.7996 40.0041 83.7397 40.0041 75.0272C40.0041 66.3147 52.1318 59.2698 67.0953 59.2698C82.0589 59.2698 94.1865 66.3097 94.1865 75.0272Z" fill="url(#paint52_linear_651_532)"/>
<path opacity="0.44" d="M93.8374 74.9132C93.8374 83.5109 81.8546 90.4859 67.0957 90.4859C52.3369 90.4859 40.349 83.496 40.349 74.9132C40.349 66.3305 52.3319 59.3356 67.0957 59.3356C81.8596 59.3356 93.8374 66.3106 93.8374 74.9132Z" fill="url(#paint53_linear_651_532)"/>
<path opacity="0.51" d="M93.4722 74.7974C93.4722 83.2853 81.6541 90.1704 67.07 90.1704C52.4859 90.1704 40.6728 83.2853 40.6728 74.7974C40.6728 66.3096 52.4909 59.4244 67.07 59.4244C81.6491 59.4244 93.4722 66.3046 93.4722 74.7974Z" fill="url(#paint54_linear_651_532)"/>
<path opacity="0.58" d="M67.0601 89.8517C52.6716 89.8517 41.0074 83.0606 41.0074 74.6834C41.0074 66.3062 52.6716 59.5151 67.0601 59.5151C81.4486 59.5151 93.1128 66.3062 93.1128 74.6834C93.1128 83.0606 81.4486 89.8517 67.0601 89.8517Z" fill="url(#paint55_linear_651_532)"/>
<path opacity="0.65" d="M92.7534 74.5683C92.7534 82.8364 81.2449 89.5468 67.0502 89.5468C52.8556 89.5468 41.3471 82.8464 41.3471 74.5683C41.3471 66.2901 52.8306 59.5897 67.0502 59.5897C81.2699 59.5897 92.7534 66.3051 92.7534 74.5683Z" fill="url(#paint56_linear_651_532)"/>
<path opacity="0.73" d="M92.394 74.4585C92.394 82.6119 81.0453 89.2224 67.0404 89.2224C53.0354 89.2224 41.6817 82.6119 41.6817 74.4585C41.6817 66.3052 53.0354 59.6897 67.0404 59.6897C81.0453 59.6897 92.394 66.3002 92.394 74.4585Z" fill="url(#paint57_linear_651_532)"/>
<path opacity="0.8" d="M67.0255 88.908C53.2133 88.908 42.0163 82.3875 42.0163 74.3439C42.0163 66.3004 53.2133 59.7798 67.0255 59.7798C80.8377 59.7798 92.0347 66.3004 92.0347 74.3439C92.0347 82.3875 80.8377 88.908 67.0255 88.908Z" fill="url(#paint58_linear_651_532)"/>
<path style="mix-blend-mode:multiply" opacity="0.05" d="M94.7153 71.1681C94.7153 79.0018 83.811 85.3528 70.3552 85.3528C56.8995 85.3528 46.0001 79.0018 46.0001 71.1681C46.0001 63.3343 56.8895 56.9834 70.3702 56.9834C83.8509 56.9834 94.7153 63.3343 94.7153 71.1681Z" fill="url(#paint59_linear_651_532)"/>
<path style="mix-blend-mode:multiply" opacity="0.09" d="M94.0171 71.2135C94.0171 78.8376 83.3973 85.0237 70.3011 85.0237C57.2048 85.0237 46.59 78.8376 46.59 71.2135C46.59 63.5895 57.2048 57.4033 70.3011 57.4033C83.3973 57.4033 94.0171 63.5845 94.0171 71.2135Z" fill="url(#paint60_linear_651_532)"/>
<path style="mix-blend-mode:multiply" opacity="0.14" d="M93.3379 71.2529C93.3379 78.6723 83.0077 84.6887 70.2659 84.6887C57.5242 84.6887 47.194 78.6723 47.194 71.2529C47.194 63.8335 57.5242 57.8221 70.2659 57.8221C83.0077 57.8221 93.3379 63.8335 93.3379 71.2529Z" fill="url(#paint61_linear_651_532)"/>
<path style="mix-blend-mode:multiply" opacity="0.18" d="M92.6187 71.2979C92.6187 78.5125 82.578 84.3592 70.1908 84.3592C57.8035 84.3592 47.7629 78.5125 47.7629 71.2979C47.7629 64.0832 57.8035 58.2366 70.1908 58.2366C82.578 58.2366 92.6187 64.0832 92.6187 71.2979Z" fill="url(#paint62_linear_651_532)"/>
<path style="mix-blend-mode:multiply" opacity="0.23" d="M91.9199 71.3383C91.9199 78.3283 82.1639 84.0252 70.1311 84.0252C58.0984 84.0252 48.3523 78.3483 48.3523 71.3383C48.3523 64.3284 58.1034 58.6565 70.1311 58.6565C82.1589 58.6565 91.9199 64.3334 91.9199 71.3383Z" fill="url(#paint63_linear_651_532)"/>
<path style="mix-blend-mode:multiply" opacity="0.27" d="M91.2207 71.3832C91.2207 78.1834 81.7343 83.6955 70.076 83.6955C58.4177 83.6955 48.9363 78.2034 48.9363 71.3832C48.9363 64.5629 58.4227 59.0708 70.076 59.0708C81.7293 59.0708 91.2207 64.5829 91.2207 71.3832Z" fill="url(#paint64_linear_651_532)"/>
<path style="mix-blend-mode:multiply" opacity="0.32" d="M90.522 71.4225C90.522 78.0181 81.3451 83.3604 70.0213 83.3604C58.6976 83.3604 49.5257 78.0181 49.5257 71.4225C49.5257 64.827 58.7026 59.4896 70.0213 59.4896C81.3401 59.4896 90.522 64.832 90.522 71.4225Z" fill="url(#paint65_linear_651_532)"/>
<path style="mix-blend-mode:multiply" opacity="0.36" d="M89.8179 71.4669C89.8179 77.8527 80.9306 83.0303 69.9663 83.0303C59.002 83.0303 50.1098 77.8527 50.1098 71.4669C50.1098 65.081 59.002 59.9084 69.9663 59.9084C80.9306 59.9084 89.8179 65.081 89.8179 71.4669Z" fill="url(#paint66_linear_651_532)"/>
<path style="mix-blend-mode:multiply" opacity="0.41" d="M89.1187 71.5125C89.1187 77.6886 80.521 82.6964 69.9112 82.6964C59.3014 82.6964 50.6987 77.7036 50.6987 71.5125C50.6987 65.3213 59.3014 60.3235 69.9112 60.3235C80.521 60.3235 89.1187 65.3313 89.1187 71.5125Z" fill="url(#paint67_linear_651_532)"/>
<path style="mix-blend-mode:multiply" opacity="0.45" d="M88.4199 71.5527C88.4199 77.5442 80.1118 82.3673 69.8565 82.3673C59.6012 82.3673 51.2881 77.5242 51.2881 71.5527C51.2881 65.5813 59.6012 60.7682 69.8715 60.7682C80.1418 60.7682 88.4199 65.5813 88.4199 71.5527Z" fill="url(#paint68_linear_651_532)"/>
<path style="mix-blend-mode:multiply" opacity="0.5" d="M87.7207 71.5973C87.7207 77.359 79.6972 82.0323 69.7964 82.0323C59.8956 82.0323 51.8721 77.359 51.8721 71.5973C51.8721 65.8355 59.8956 61.1572 69.7964 61.1572C79.6972 61.1572 87.7207 65.8305 87.7207 71.5973Z" fill="url(#paint69_linear_651_532)"/>
<path d="M101.726 48.006C101.727 54.8278 99.7046 61.4967 95.9153 67.1693C92.126 72.8419 86.7397 77.2634 80.4374 79.8747C74.1352 82.486 67.2001 83.1697 60.5093 81.8394C53.8184 80.5092 47.6723 77.2247 42.8482 72.4013C38.0241 67.5779 34.7387 61.4323 33.4075 54.7416C32.0763 48.0509 32.759 41.1158 35.3694 34.8132C37.9797 28.5105 42.4005 23.1235 48.0725 19.3334C53.7446 15.5434 60.4132 13.5204 67.235 13.5204C76.3816 13.5204 85.1537 17.1535 91.6218 23.6207C98.0899 30.0878 101.724 38.8594 101.726 48.006Z" fill="url(#paint70_radial_651_532)"/>
<path d="M35.5358 51.0563C42.7557 59.8041 52.9091 65.6296 64.1048 67.4479C64.8146 67.5661 65.5415 67.5283 66.2351 67.337C66.9287 67.1458 67.5723 66.8057 68.1212 66.3405C68.67 65.8753 69.111 65.2961 69.4132 64.6432C69.7155 63.9903 69.8719 63.2794 69.8716 62.5599V53.5727C69.8701 51.6139 69.2382 49.7076 68.0692 48.1358C66.9003 46.564 65.2564 45.4103 63.3809 44.8452C55.2836 42.3881 47.9314 37.9404 41.9965 31.9088C41.6686 31.5777 41.268 31.3277 40.8266 31.1786C40.3851 31.0295 39.915 30.9855 39.4535 31.0499C38.9921 31.1144 38.552 31.2856 38.1683 31.55C37.7846 31.8144 37.4679 32.1646 37.2433 32.5728C35.2866 36.2758 34.0354 40.3104 33.5536 44.4708C33.4254 45.6453 33.5348 46.8337 33.8753 47.965C34.2158 49.0964 34.7805 50.1477 35.5358 51.0563Z" fill="url(#paint71_linear_651_532)"/>
<path d="M44.4678 46.8626C44.4678 48.4903 43.3144 49.1494 41.8965 48.3305C41.1486 47.845 40.5257 47.1901 40.0781 46.419C39.6305 45.6478 39.3708 44.7821 39.3201 43.8919C39.3201 42.2592 40.4735 41.6052 41.8965 42.424C42.6436 42.9098 43.2658 43.5649 43.7126 44.336C44.1593 45.1072 44.418 45.9728 44.4678 46.8626Z" fill="#2AF6FF"/>
<path d="M59.2769 55.4205C59.2769 57.0531 58.1235 57.7122 56.7005 56.8884C55.9534 56.4026 55.3312 55.7475 54.8844 54.9763C54.4377 54.2052 54.179 53.3396 54.1292 52.4497C54.1292 50.8221 55.2826 50.163 56.7005 50.9818C57.4484 51.4674 58.0713 52.1222 58.5189 52.8934C58.9665 53.6645 59.2262 54.5303 59.2769 55.4205Z" fill="#2AF6FF"/>
<path d="M95.5996 96.4767C95.5996 98.0636 95.129 99.6149 94.2474 100.934C93.3658 102.254 92.1127 103.282 90.6466 103.889C89.1805 104.497 87.5672 104.656 86.0108 104.346C84.4544 104.036 83.0247 103.272 81.9026 102.15C80.7805 101.028 80.0164 99.5985 79.7068 98.0421C79.3972 96.4856 79.5561 94.8724 80.1633 93.4063C80.7706 91.9402 81.799 90.6871 83.1185 89.8055C84.4379 88.9238 85.9892 88.4532 87.5761 88.4532C89.7041 88.4532 91.7449 89.2986 93.2496 90.8033C94.7543 92.308 95.5996 94.3488 95.5996 96.4767Z" fill="url(#paint72_radial_651_532)"/>
<path d="M94.7457 100.037C93.7472 106.074 85.2593 119.335 81.6595 118.536C78.0596 117.737 81.27 101.4 82.3085 96.732C83.2222 92.6229 86.6373 90.5758 90.2322 91.3746C93.827 92.1735 95.4497 95.8832 94.7457 100.037Z" fill="url(#paint73_linear_651_532)"/>
<path style="mix-blend-mode:multiply" d="M94.7457 100.037C93.7472 106.074 85.2593 119.335 81.6595 118.536C78.0596 117.737 81.27 101.4 82.3085 96.732C83.2222 92.6229 86.6373 90.5758 90.2322 91.3746C93.827 92.1735 95.4497 95.8832 94.7457 100.037Z" fill="url(#paint74_radial_651_532)"/>
<path style="mix-blend-mode:color-dodge" d="M88.7892 98.5486C88.4397 103.317 82.8877 116.738 81.7343 116.653C80.581 116.568 82.4932 104.46 83.1473 99.3324C83.6815 95.1534 84.9597 93.0365 86.0531 92.677C89.1837 91.6485 89.0988 94.3496 88.7892 98.5486Z" fill="url(#paint75_radial_651_532)"/>
<path style="mix-blend-mode:color-dodge" d="M94.0019 100.666C92.5041 107.726 85.2595 117.108 84.1261 116.888C82.9927 116.668 89.4584 107.202 90.7117 102.209C91.7102 98.1248 90.7566 93.9708 91.885 93.7211C95.1153 93.0771 94.8357 96.5421 94.0019 100.666Z" fill="url(#paint76_radial_651_532)"/>
<path d="M77.4258 18.3887H56.7903V19.8865V19.9714C56.7903 23.2916 61.4087 25.9628 67.1106 25.9628C72.8124 25.9628 77.4258 23.2717 77.4258 19.9714V19.8865V18.3887Z" fill="url(#paint77_linear_651_532)"/>
<path d="M77.4258 18.4288C77.4258 21.749 72.8074 24.4202 67.1106 24.4202C61.4137 24.4202 56.7903 21.7291 56.7903 18.4288C56.7903 15.1285 61.4087 12.4374 67.1106 12.4374C72.8124 12.4374 77.4258 15.1135 77.4258 18.4288Z" fill="url(#paint78_linear_651_532)"/>
<path d="M68.6484 4.18933H65.5629V17.7799C65.5629 18.2791 66.2569 18.6786 67.1106 18.6786C67.9644 18.6786 68.6484 18.2742 68.6484 17.7799V4.18933Z" fill="url(#paint79_linear_651_532)"/>
<path d="M71.6934 4.58344C71.6943 5.49137 71.426 6.37919 70.9222 7.13451C70.4183 7.88984 69.7018 8.47872 68.8632 8.82663C68.0245 9.17454 67.1015 9.26582 66.211 9.08893C65.3205 8.91205 64.5024 8.47494 63.8604 7.83294C63.2184 7.19093 62.7813 6.3729 62.6044 5.48237C62.4275 4.59184 62.5188 3.66884 62.8667 2.83021C63.2146 1.99158 63.8035 1.27502 64.5589 0.771214C65.3142 0.267411 66.202 -0.000984703 67.1099 2.71473e-06C68.3255 2.71473e-06 69.4913 0.482902 70.3509 1.34246C71.2105 2.20202 71.6934 3.36784 71.6934 4.58344Z" fill="url(#paint80_radial_651_532)"/>
<path style="mix-blend-mode:color-dodge" d="M81.9741 38.1904C81.9731 42.5126 80.6905 46.7375 78.2883 50.3308C75.8862 53.924 72.4725 56.7243 68.4789 58.3774C64.4852 60.0306 60.0911 60.4624 55.8521 59.6182C51.6131 58.774 47.7196 56.6917 44.664 53.6347C41.6084 50.5777 39.5279 46.6833 38.6857 42.4439C37.8434 38.2045 38.2772 33.8106 39.9322 29.8177C41.5871 25.8248 44.3889 22.4124 47.9833 20.0119C51.5777 17.6114 55.8032 16.3307 60.1254 16.3317C62.9955 16.3317 65.8374 16.8971 68.4889 17.9958C71.1403 19.0944 73.5493 20.7046 75.5783 22.7345C77.6073 24.7644 79.2164 27.1742 80.3138 29.8261C81.4113 32.4781 81.9754 35.3203 81.9741 38.1904Z" fill="url(#paint81_radial_651_532)"/>
<path style="mix-blend-mode:color-dodge" d="M51.438 45.1452C51.438 47.0569 50.8711 48.9258 49.8089 50.5154C48.7468 52.105 47.2372 53.3439 45.4709 54.0755C43.7047 54.8071 41.7611 54.9985 39.8861 54.6256C38.011 54.2526 36.2887 53.332 34.9368 51.9802C33.585 50.6283 32.6644 48.906 32.2914 47.0309C31.9184 45.1559 32.1099 43.2123 32.8415 41.4461C33.5731 39.6798 34.812 38.1702 36.4016 37.108C37.9912 36.0459 39.86 35.479 41.7718 35.479C44.3355 35.479 46.7941 36.4974 48.6068 38.3102C50.4196 40.1229 51.438 42.5815 51.438 45.1452Z" fill="url(#paint82_radial_651_532)"/>
<path style="mix-blend-mode:color-dodge" d="M66.5112 54.0375C66.5112 55.9493 65.9443 57.8181 64.8822 59.4077C63.8201 60.9973 62.3104 62.2362 60.5442 62.9679C58.7779 63.6995 56.8344 63.8909 54.9593 63.5179C53.0843 63.1449 51.3619 62.2243 50.0101 60.8725C48.6582 59.5207 47.7376 57.7983 47.3647 55.9233C46.9917 54.0482 47.1831 52.1047 47.9147 50.3384C48.6463 48.5721 49.8853 47.0625 51.4748 46.0004C53.0644 44.9383 54.9333 44.3713 56.8451 44.3713C59.4087 44.3713 61.8673 45.3897 63.6801 47.2025C65.4928 49.0152 66.5112 51.4739 66.5112 54.0375Z" fill="url(#paint83_radial_651_532)"/>
<path style="mix-blend-mode:color-dodge" d="M51.7968 90.3704C55.7162 106.113 63.8346 124.242 61.9074 125.121C58.5072 126.658 45.1514 108.854 41.232 93.1115C37.7819 79.2513 39.4146 62.9547 42.9994 62.0659C46.5843 61.1772 48.3468 76.5103 51.7968 90.3704Z" fill="url(#paint84_radial_651_532)"/>
<path d="M43.3041 67.9575L40.8077 63.6837C40.3084 62.8349 40.8077 62.1858 41.4817 62.8449L44.9068 66.1801C45.6731 67.0019 46.6677 67.5757 47.7628 67.8277L51.1529 68.4069C51.807 68.5167 52.3212 69.75 51.8319 70.0296L49.3355 71.4426C47.6729 72.3912 44.9668 70.8334 43.3041 67.9575Z" fill="url(#paint85_linear_651_532)"/>
</g>
<defs>
<filter id="filter0_d_651_532" x="0.421053" y="24.8948" width="131.263" height="133.526" filterUnits="userSpaceOnUse" color-interpolation-filters="sRGB">
<feFlood flood-opacity="0" result="BackgroundImageFix"/>
<feColorMatrix in="SourceAlpha" type="matrix" values="0 0 0 0 0 0 0 0 0 0 0 0 0 0 0 0 0 0 127 0" result="hardAlpha"/>
<feOffset dy="15.8421"/>
<feGaussianBlur stdDeviation="6.78947"/>
<feComposite in2="hardAlpha" operator="out"/>
<feColorMatrix type="matrix" values="0 0 0 0 0 0 0 0 0 0 0 0 0 0 0 0 0 0 0.15 0"/>
<feBlend mode="normal" in2="BackgroundImageFix" result="effect1_dropShadow_651_532"/>
<feBlend mode="normal" in="SourceGraphic" in2="effect1_dropShadow_651_532" result="shape"/>
</filter>
<linearGradient id="paint0_linear_651_532" x1="67.0806" y1="133.798" x2="67.0806" y2="162.357" gradientUnits="userSpaceOnUse">
<stop stop-color="#113A39"/>
<stop offset="0.22" stop-color="#0A2222"/>
<stop offset="0.47" stop-color="#040F0F"/>
<stop offset="0.73" stop-color="#010404"/>
<stop offset="1"/>
</linearGradient>
<linearGradient id="paint1_linear_651_532" x1="67.0809" y1="133.833" x2="67.0809" y2="161.943" gradientUnits="userSpaceOnUse">
<stop stop-color="#164A48"/>
<stop offset="0.06" stop-color="#134140"/>
<stop offset="0.3" stop-color="#0B2524"/>
<stop offset="0.54" stop-color="#051010"/>
<stop offset="0.77" stop-color="#010404"/>
<stop offset="1"/>
</linearGradient>
<linearGradient id="paint2_linear_651_532" x1="67.0806" y1="133.868" x2="67.0806" y2="161.524" gradientUnits="userSpaceOnUse">
<stop stop-color="#1A5A58"/>
<stop offset="0.13" stop-color="#144645"/>
<stop offset="0.36" stop-color="#0B2827"/>
<stop offset="0.58" stop-color="#051211"/>
<stop offset="0.8" stop-color="#010404"/>
<stop offset="1"/>
</linearGradient>
<linearGradient id="paint3_linear_651_532" x1="67.08" y1="133.903" x2="67.08" y2="161.109" gradientUnits="userSpaceOnUse">
<stop stop-color="#1F6967"/>
<stop offset="0.17" stop-color="#164C4A"/>
<stop offset="0.4" stop-color="#0D2B2A"/>
<stop offset="0.62" stop-color="#061313"/>
<stop offset="0.83" stop-color="#010505"/>
<stop offset="1"/>
</linearGradient>
<linearGradient id="paint4_linear_651_532" x1="67.0804" y1="133.943" x2="67.0804" y2="160.69" gradientUnits="userSpaceOnUse">
<stop stop-color="#237976"/>
<stop offset="0.21" stop-color="#185250"/>
<stop offset="0.44" stop-color="#0E2F2E"/>
<stop offset="0.65" stop-color="#061514"/>
<stop offset="0.85" stop-color="#020505"/>
<stop offset="1"/>
</linearGradient>
<linearGradient id="paint5_linear_651_532" x1="60.5897" y1="128.92" x2="73.5661" y2="128.92" gradientUnits="userSpaceOnUse">
<stop offset="0.02" stop-color="#45108A"/>
<stop offset="0.29" stop-color="#3D065F"/>
<stop offset="1" stop-color="#10054D"/>
</linearGradient>
<linearGradient id="paint6_linear_651_532" x1="29.4244" y1="86.6402" x2="53.1304" y2="89.556" gradientUnits="userSpaceOnUse">
<stop offset="0.01" stop-color="#C1A1D5"/>
<stop offset="0.05" stop-color="#C8ABDA"/>
<stop offset="0.11" stop-color="#DAC6E6"/>
<stop offset="0.2" stop-color="#F7F2F9"/>
<stop offset="0.22" stop-color="white"/>
<stop offset="0.25" stop-color="#F9F5FB"/>
<stop offset="0.3" stop-color="#E9DBF2"/>
<stop offset="0.36" stop-color="#D1B4E3"/>
<stop offset="0.43" stop-color="#B395D6"/>
<stop offset="0.49" stop-color="#9C7DCB"/>
<stop offset="0.56" stop-color="#8E6EC5"/>
<stop offset="0.61" stop-color="#8969C3"/>
<stop offset="0.76" stop-color="#9471C6"/>
<stop offset="1" stop-color="#B086CC"/>
</linearGradient>
<linearGradient id="paint7_linear_651_532" x1="61.9029" y1="123.058" x2="72.3379" y2="129.084" gradientUnits="userSpaceOnUse">
<stop offset="0.02" stop-color="#45108A"/>
<stop offset="0.29" stop-color="#3D065F"/>
<stop offset="1" stop-color="#10054D"/>
</linearGradient>
<linearGradient id="paint8_linear_651_532" x1="36.6892" y1="98.3345" x2="97.3773" y2="89.1476" gradientUnits="userSpaceOnUse">
<stop offset="0.01" stop-color="#C1A1D5"/>
<stop offset="0.04" stop-color="#C8ABDA"/>
<stop offset="0.1" stop-color="#DAC6E6"/>
<stop offset="0.18" stop-color="#F7F2F9"/>
<stop offset="0.2" stop-color="white"/>
<stop offset="0.23" stop-color="#F9F5FB"/>
<stop offset="0.29" stop-color="#E9DBF2"/>
<stop offset="0.36" stop-color="#D1B4E3"/>
<stop offset="0.43" stop-color="#B395D6"/>
<stop offset="0.49" stop-color="#9C7DCB"/>
<stop offset="0.56" stop-color="#8E6EC5"/>
<stop offset="0.61" stop-color="#8969C3"/>
<stop offset="0.76" stop-color="#9471C6"/>
<stop offset="1" stop-color="#B086CC"/>
</linearGradient>
<radialGradient id="paint9_radial_651_532" cx="0" cy="0" r="1" gradientUnits="userSpaceOnUse" gradientTransform="translate(64.2597 91.9586) scale(38.5648 38.5648)">
<stop offset="0.38" stop-color="white"/>
<stop offset="0.47" stop-color="#F4F2F9"/>
<stop offset="0.63" stop-color="#D8D0E8"/>
<stop offset="0.85" stop-color="#AA99CC"/>
<stop offset="1" stop-color="#8770B8"/>
</radialGradient>
<linearGradient id="paint10_linear_651_532" x1="44.5977" y1="62.4656" x2="89.6781" y2="88.4934" gradientUnits="userSpaceOnUse">
<stop stop-color="white"/>
<stop offset="0.31" stop-color="#E9DDF1"/>
<stop offset="0.98" stop-color="#B188CD"/>
<stop offset="1" stop-color="#B086CC"/>
</linearGradient>
<linearGradient id="paint11_linear_651_532" x1="44.8624" y1="62.5107" x2="89.3937" y2="88.2238" gradientUnits="userSpaceOnUse">
<stop stop-color="white"/>
<stop offset="0.31" stop-color="#E9DDF1"/>
<stop offset="0.98" stop-color="#B188CD"/>
<stop offset="1" stop-color="#B086CC"/>
</linearGradient>
<linearGradient id="paint12_linear_651_532" x1="45.1272" y1="62.5553" x2="89.1092" y2="87.9489" gradientUnits="userSpaceOnUse">
<stop stop-color="white"/>
<stop offset="0.31" stop-color="#E9DDF1"/>
<stop offset="0.98" stop-color="#B188CD"/>
<stop offset="1" stop-color="#B086CC"/>
</linearGradient>
<linearGradient id="paint13_linear_651_532" x1="45.3913" y1="62.601" x2="88.8241" y2="87.675" gradientUnits="userSpaceOnUse">
<stop stop-color="white"/>
<stop offset="0.31" stop-color="#E9DDF1"/>
<stop offset="0.98" stop-color="#B188CD"/>
<stop offset="1" stop-color="#B086CC"/>
</linearGradient>
<linearGradient id="paint14_linear_651_532" x1="45.6511" y1="62.6449" x2="88.5396" y2="87.4045" gradientUnits="userSpaceOnUse">
<stop stop-color="white"/>
<stop offset="0.31" stop-color="#E9DDF1"/>
<stop offset="0.98" stop-color="#B188CD"/>
<stop offset="1" stop-color="#B086CC"/>
</linearGradient>
<linearGradient id="paint15_linear_651_532" x1="45.916" y1="62.6908" x2="88.2504" y2="87.1308" gradientUnits="userSpaceOnUse">
<stop stop-color="white"/>
<stop offset="0.31" stop-color="#E9DDF1"/>
<stop offset="0.98" stop-color="#B188CD"/>
<stop offset="1" stop-color="#B086CC"/>
</linearGradient>
<linearGradient id="paint16_linear_651_532" x1="46.1799" y1="62.7347" x2="87.9651" y2="86.8601" gradientUnits="userSpaceOnUse">
<stop stop-color="white"/>
<stop offset="0.31" stop-color="#E9DDF1"/>
<stop offset="0.98" stop-color="#B188CD"/>
<stop offset="1" stop-color="#B086CC"/>
</linearGradient>
<linearGradient id="paint17_linear_651_532" x1="46.4397" y1="62.7805" x2="87.6756" y2="86.5864" gradientUnits="userSpaceOnUse">
<stop stop-color="white"/>
<stop offset="0.31" stop-color="#E9DDF1"/>
<stop offset="0.98" stop-color="#B188CD"/>
<stop offset="1" stop-color="#B086CC"/>
</linearGradient>
<linearGradient id="paint18_linear_651_532" x1="46.7094" y1="62.8251" x2="87.3961" y2="86.3164" gradientUnits="userSpaceOnUse">
<stop stop-color="white"/>
<stop offset="0.31" stop-color="#E9DDF1"/>
<stop offset="0.98" stop-color="#B188CD"/>
<stop offset="1" stop-color="#B086CC"/>
</linearGradient>
<linearGradient id="paint19_linear_651_532" x1="46.9741" y1="62.8701" x2="87.1116" y2="86.042" gradientUnits="userSpaceOnUse">
<stop stop-color="white"/>
<stop offset="0.31" stop-color="#E9DDF1"/>
<stop offset="0.98" stop-color="#B188CD"/>
<stop offset="1" stop-color="#B086CC"/>
</linearGradient>
<linearGradient id="paint20_linear_651_532" x1="47.2288" y1="62.9153" x2="86.8171" y2="85.7726" gradientUnits="userSpaceOnUse">
<stop stop-color="white"/>
<stop offset="0.31" stop-color="#E9DDF1"/>
<stop offset="0.98" stop-color="#B188CD"/>
<stop offset="1" stop-color="#B086CC"/>
</linearGradient>
<linearGradient id="paint21_linear_651_532" x1="51.0828" y1="60.039" x2="89.6376" y2="82.2971" gradientUnits="userSpaceOnUse">
<stop offset="0.19" stop-color="#3D065F"/>
<stop offset="0.93" stop-color="#3D065F"/>
</linearGradient>
<linearGradient id="paint22_linear_651_532" x1="51.5329" y1="60.3741" x2="89.0742" y2="82.048" gradientUnits="userSpaceOnUse">
<stop offset="0.19" stop-color="#3D065F"/>
<stop offset="0.93" stop-color="#3D065F"/>
</linearGradient>
<linearGradient id="paint23_linear_651_532" x1="51.9871" y1="60.713" x2="88.5048" y2="81.7978" gradientUnits="userSpaceOnUse">
<stop offset="0.19" stop-color="#3D065F"/>
<stop offset="0.93" stop-color="#3D065F"/>
</linearGradient>
<linearGradient id="paint24_linear_651_532" x1="52.4412" y1="61.0475" x2="87.9404" y2="81.5482" gradientUnits="userSpaceOnUse">
<stop offset="0.19" stop-color="#3D065F"/>
<stop offset="0.93" stop-color="#3D065F"/>
</linearGradient>
<linearGradient id="paint25_linear_651_532" x1="52.8958" y1="61.3876" x2="87.3764" y2="81.2941" gradientUnits="userSpaceOnUse">
<stop offset="0.19" stop-color="#3D065F"/>
<stop offset="0.93" stop-color="#3D065F"/>
</linearGradient>
<linearGradient id="paint26_linear_651_532" x1="53.345" y1="61.722" x2="86.812" y2="81.0443" gradientUnits="userSpaceOnUse">
<stop offset="0.19" stop-color="#3D065F"/>
<stop offset="0.93" stop-color="#3D065F"/>
</linearGradient>
<linearGradient id="paint27_linear_651_532" x1="53.7996" y1="62.0609" x2="86.2481" y2="80.7941" gradientUnits="userSpaceOnUse">
<stop offset="0.19" stop-color="#3D065F"/>
<stop offset="0.93" stop-color="#3D065F"/>
</linearGradient>
<linearGradient id="paint28_linear_651_532" x1="54.2538" y1="62.3949" x2="85.6788" y2="80.5389" gradientUnits="userSpaceOnUse">
<stop offset="0.19" stop-color="#3D065F"/>
<stop offset="0.93" stop-color="#3D065F"/>
</linearGradient>
<linearGradient id="paint29_linear_651_532" x1="54.7079" y1="62.73" x2="85.1144" y2="80.2899" gradientUnits="userSpaceOnUse">
<stop offset="0.19" stop-color="#3D065F"/>
<stop offset="0.93" stop-color="#3D065F"/>
</linearGradient>
<linearGradient id="paint30_linear_651_532" x1="55.1576" y1="63.0699" x2="84.5505" y2="80.0406" gradientUnits="userSpaceOnUse">
<stop offset="0.19" stop-color="#3D065F"/>
<stop offset="0.93" stop-color="#3D065F"/>
</linearGradient>
<linearGradient id="paint31_linear_651_532" x1="55.6117" y1="63.404" x2="83.9861" y2="79.7855" gradientUnits="userSpaceOnUse">
<stop offset="0.19" stop-color="#3D065F"/>
<stop offset="0.93" stop-color="#3D065F"/>
</linearGradient>
<radialGradient id="paint32_radial_651_532" cx="0" cy="0" r="1" gradientUnits="userSpaceOnUse" gradientTransform="translate(58.3028 38.2849) scale(48.7352)">
<stop offset="0.01" stop-color="white"/>
<stop offset="0.16" stop-color="#E6D7F0"/>
<stop offset="0.28" stop-color="#D7BDE7"/>
<stop offset="0.36" stop-color="#D1B4E3"/>
<stop offset="0.48" stop-color="#C4A4DC"/>
<stop offset="0.71" stop-color="#A17BC9"/>
<stop offset="0.72" stop-color="#9F79C8"/>
<stop offset="0.81" stop-color="#A37CC9"/>
<stop offset="0.9" stop-color="#AE84CC"/>
<stop offset="0.91" stop-color="#B086CC"/>
<stop offset="0.96" stop-color="#AD84CB"/>
<stop offset="0.99" stop-color="#A57DC9"/>
<stop offset="1" stop-color="#9F79C8"/>
</radialGradient>
<linearGradient id="paint33_linear_651_532" x1="33.5037" y1="49.2589" x2="69.8566" y2="49.2589" gradientUnits="userSpaceOnUse">
<stop offset="0.02" stop-color="#45108A"/>
<stop offset="0.29" stop-color="#3D065F"/>
<stop offset="1" stop-color="#10054D"/>
</linearGradient>
<radialGradient id="paint34_radial_651_532" cx="0" cy="0" r="1" gradientUnits="userSpaceOnUse" gradientTransform="translate(84.9499 92.6672) scale(11.7831 11.7831)">
<stop offset="0.04" stop-color="#6115A3"/>
<stop offset="0.1" stop-color="#5A139A"/>
<stop offset="0.52" stop-color="#2B0658"/>
<stop offset="1" stop-color="#10054D"/>
</radialGradient>
<linearGradient id="paint35_linear_651_532" x1="78.6638" y1="104.046" x2="102.195" y2="106.937" gradientUnits="userSpaceOnUse">
<stop offset="0.01" stop-color="#C1A1D5"/>
<stop offset="0.05" stop-color="#C8ABDA"/>
<stop offset="0.11" stop-color="#DAC6E6"/>
<stop offset="0.2" stop-color="#F7F2F9"/>
<stop offset="0.22" stop-color="white"/>
<stop offset="0.25" stop-color="#F9F5FB"/>
<stop offset="0.3" stop-color="#E9DBF2"/>
<stop offset="0.36" stop-color="#D1B4E3"/>
<stop offset="0.43" stop-color="#B395D6"/>
<stop offset="0.49" stop-color="#9C7DCB"/>
<stop offset="0.56" stop-color="#8E6EC5"/>
<stop offset="0.61" stop-color="#8969C3"/>
<stop offset="0.76" stop-color="#9471C6"/>
<stop offset="1" stop-color="#B086CC"/>
</linearGradient>
<radialGradient id="paint36_radial_651_532" cx="0" cy="0" r="1" gradientUnits="userSpaceOnUse" gradientTransform="translate(81.1053 101.126) scale(16.6112 16.6112)">
<stop offset="0.38" stop-color="white"/>
<stop offset="0.47" stop-color="#F4F2F9"/>
<stop offset="0.63" stop-color="#D8D0E8"/>
<stop offset="0.85" stop-color="#AA99CC"/>
<stop offset="1" stop-color="#8770B8"/>
</radialGradient>
<radialGradient id="paint37_radial_651_532" cx="0" cy="0" r="1" gradientUnits="userSpaceOnUse" gradientTransform="translate(82.7107 125.788) rotate(-30.6997) scale(4.02097 9.10451)">
<stop stop-color="#972A74"/>
<stop offset="0.04" stop-color="#8A266A"/>
<stop offset="0.19" stop-color="#601B4A"/>
<stop offset="0.35" stop-color="#3D112F"/>
<stop offset="0.51" stop-color="#230A1B"/>
<stop offset="0.67" stop-color="#0F040C"/>
<stop offset="0.83" stop-color="#040103"/>
<stop offset="1"/>
</radialGradient>
<radialGradient id="paint38_radial_651_532" cx="0" cy="0" r="1" gradientUnits="userSpaceOnUse" gradientTransform="translate(84.4903 124.804) rotate(-23.8059) scale(4.19328 9.46751)">
<stop stop-color="#481437"/>
<stop offset="0.07" stop-color="#3D112F"/>
<stop offset="0.3" stop-color="#220A1A"/>
<stop offset="0.52" stop-color="#0F040C"/>
<stop offset="0.76" stop-color="#040103"/>
<stop offset="1"/>
</radialGradient>
<linearGradient id="paint39_linear_651_532" x1="56.8902" y1="22.1832" x2="77.2011" y2="22.1832" gradientUnits="userSpaceOnUse">
<stop offset="0.01" stop-color="#C1A1D5"/>
<stop offset="0.05" stop-color="#C8ABDA"/>
<stop offset="0.11" stop-color="#DAC6E6"/>
<stop offset="0.2" stop-color="#F7F2F9"/>
<stop offset="0.22" stop-color="white"/>
<stop offset="0.25" stop-color="#F9F5FB"/>
<stop offset="0.3" stop-color="#E9DBF2"/>
<stop offset="0.36" stop-color="#D1B4E3"/>
<stop offset="0.43" stop-color="#B395D6"/>
<stop offset="0.49" stop-color="#9C7DCB"/>
<stop offset="0.56" stop-color="#8E6EC5"/>
<stop offset="0.61" stop-color="#8969C3"/>
<stop offset="0.76" stop-color="#9471C6"/>
<stop offset="1" stop-color="#B086CC"/>
</linearGradient>
<radialGradient id="paint40_radial_651_532" cx="0" cy="0" r="1" gradientUnits="userSpaceOnUse" gradientTransform="translate(56.8152 33.7567) scale(25.2838)">
<stop stop-color="#972A74"/>
<stop offset="0.04" stop-color="#8A266A"/>
<stop offset="0.19" stop-color="#601B4A"/>
<stop offset="0.35" stop-color="#3D112F"/>
<stop offset="0.51" stop-color="#230A1B"/>
<stop offset="0.67" stop-color="#0F040C"/>
<stop offset="0.83" stop-color="#040103"/>
<stop offset="1"/>
</radialGradient>
<radialGradient id="paint41_radial_651_532" cx="0" cy="0" r="1" gradientUnits="userSpaceOnUse" gradientTransform="translate(41.7768 45.1452) scale(9.66616 9.66615)">
<stop stop-color="#43E8E1"/>
<stop offset="0.14" stop-color="#34B5B0"/>
<stop offset="0.3" stop-color="#257F7B"/>
<stop offset="0.46" stop-color="#17514F"/>
<stop offset="0.62" stop-color="#0D2E2D"/>
<stop offset="0.76" stop-color="#061514"/>
<stop offset="0.89" stop-color="#020505"/>
<stop offset="1"/>
</radialGradient>
<radialGradient id="paint42_radial_651_532" cx="0" cy="0" r="1" gradientUnits="userSpaceOnUse" gradientTransform="translate(56.8451 54.0375) scale(9.66615 9.66615)">
<stop stop-color="#43E8E1"/>
<stop offset="0.14" stop-color="#34B5B0"/>
<stop offset="0.3" stop-color="#257F7B"/>
<stop offset="0.46" stop-color="#17514F"/>
<stop offset="0.62" stop-color="#0D2E2D"/>
<stop offset="0.76" stop-color="#061514"/>
<stop offset="0.89" stop-color="#020505"/>
<stop offset="1"/>
</radialGradient>
<radialGradient id="paint43_radial_651_532" cx="0" cy="0" r="1" gradientUnits="userSpaceOnUse" gradientTransform="translate(34.9041 42.7406) rotate(-15.2551) scale(7.02027 30.7542)">
<stop stop-color="#972A74"/>
<stop offset="0.02" stop-color="#8C276C"/>
<stop offset="0.11" stop-color="#671D4F"/>
<stop offset="0.21" stop-color="#471437"/>
<stop offset="0.32" stop-color="#2D0D23"/>
<stop offset="0.43" stop-color="#190713"/>
<stop offset="0.57" stop-color="#0B0308"/>
<stop offset="0.73" stop-color="#020102"/>
<stop offset="1"/>
</radialGradient>
<linearGradient id="paint44_linear_651_532" x1="41.144" y1="62.6373" x2="47.0637" y2="72.9545" gradientUnits="userSpaceOnUse">
<stop offset="0.02" stop-color="#45108A"/>
<stop offset="0.29" stop-color="#3D065F"/>
<stop offset="1" stop-color="#10054D"/>
</linearGradient>
<linearGradient id="paint45_linear_651_532" x1="29.4244" y1="86.6402" x2="53.1304" y2="89.556" gradientUnits="userSpaceOnUse">
<stop offset="0.01" stop-color="#C1A1D5"/>
<stop offset="0.05" stop-color="#C8ABDA"/>
<stop offset="0.11" stop-color="#DAC6E6"/>
<stop offset="0.2" stop-color="#F7F2F9"/>
<stop offset="0.22" stop-color="white"/>
<stop offset="0.25" stop-color="#F9F5FB"/>
<stop offset="0.3" stop-color="#E9DBF2"/>
<stop offset="0.36" stop-color="#D1B4E3"/>
<stop offset="0.43" stop-color="#B395D6"/>
<stop offset="0.49" stop-color="#9C7DCB"/>
<stop offset="0.56" stop-color="#8E6EC5"/>
<stop offset="0.61" stop-color="#8969C3"/>
<stop offset="0.76" stop-color="#9471C6"/>
<stop offset="1" stop-color="#B086CC"/>
</linearGradient>
<linearGradient id="paint46_linear_651_532" x1="36.6892" y1="98.3345" x2="97.3773" y2="89.1476" gradientUnits="userSpaceOnUse">
<stop offset="0.01" stop-color="#C1A1D5"/>
<stop offset="0.04" stop-color="#C8ABDA"/>
<stop offset="0.1" stop-color="#DAC6E6"/>
<stop offset="0.18" stop-color="#F7F2F9"/>
<stop offset="0.2" stop-color="white"/>
<stop offset="0.23" stop-color="#F9F5FB"/>
<stop offset="0.29" stop-color="#E9DBF2"/>
<stop offset="0.36" stop-color="#D1B4E3"/>
<stop offset="0.43" stop-color="#B395D6"/>
<stop offset="0.49" stop-color="#9C7DCB"/>
<stop offset="0.56" stop-color="#8E6EC5"/>
<stop offset="0.61" stop-color="#8969C3"/>
<stop offset="0.76" stop-color="#9471C6"/>
<stop offset="1" stop-color="#B086CC"/>
</linearGradient>
<radialGradient id="paint47_radial_651_532" cx="0" cy="0" r="1" gradientUnits="userSpaceOnUse" gradientTransform="translate(64.2597 91.9586) scale(38.5648 38.5648)">
<stop offset="0.38" stop-color="white"/>
<stop offset="0.47" stop-color="#F4F2F9"/>
<stop offset="0.63" stop-color="#D8D0E8"/>
<stop offset="0.85" stop-color="#AA99CC"/>
<stop offset="1" stop-color="#8770B8"/>
</radialGradient>
<linearGradient id="paint48_linear_651_532" x1="44.5977" y1="62.4656" x2="89.6781" y2="88.4934" gradientUnits="userSpaceOnUse">
<stop stop-color="white"/>
<stop offset="0.31" stop-color="#E9DDF1"/>
<stop offset="0.98" stop-color="#B188CD"/>
<stop offset="1" stop-color="#B086CC"/>
</linearGradient>
<linearGradient id="paint49_linear_651_532" x1="44.8624" y1="62.5107" x2="89.3937" y2="88.2238" gradientUnits="userSpaceOnUse">
<stop stop-color="white"/>
<stop offset="0.31" stop-color="#E9DDF1"/>
<stop offset="0.98" stop-color="#B188CD"/>
<stop offset="1" stop-color="#B086CC"/>
</linearGradient>
<linearGradient id="paint50_linear_651_532" x1="45.1272" y1="62.5553" x2="89.1092" y2="87.9489" gradientUnits="userSpaceOnUse">
<stop stop-color="white"/>
<stop offset="0.31" stop-color="#E9DDF1"/>
<stop offset="0.98" stop-color="#B188CD"/>
<stop offset="1" stop-color="#B086CC"/>
</linearGradient>
<linearGradient id="paint51_linear_651_532" x1="45.3913" y1="62.601" x2="88.8241" y2="87.675" gradientUnits="userSpaceOnUse">
<stop stop-color="white"/>
<stop offset="0.31" stop-color="#E9DDF1"/>
<stop offset="0.98" stop-color="#B188CD"/>
<stop offset="1" stop-color="#B086CC"/>
</linearGradient>
<linearGradient id="paint52_linear_651_532" x1="45.6511" y1="62.6449" x2="88.5396" y2="87.4045" gradientUnits="userSpaceOnUse">
<stop stop-color="white"/>
<stop offset="0.31" stop-color="#E9DDF1"/>
<stop offset="0.98" stop-color="#B188CD"/>
<stop offset="1" stop-color="#B086CC"/>
</linearGradient>
<linearGradient id="paint53_linear_651_532" x1="45.916" y1="62.6908" x2="88.2504" y2="87.1308" gradientUnits="userSpaceOnUse">
<stop stop-color="white"/>
<stop offset="0.31" stop-color="#E9DDF1"/>
<stop offset="0.98" stop-color="#B188CD"/>
<stop offset="1" stop-color="#B086CC"/>
</linearGradient>
<linearGradient id="paint54_linear_651_532" x1="46.1799" y1="62.7347" x2="87.9651" y2="86.8601" gradientUnits="userSpaceOnUse">
<stop stop-color="white"/>
<stop offset="0.31" stop-color="#E9DDF1"/>
<stop offset="0.98" stop-color="#B188CD"/>
<stop offset="1" stop-color="#B086CC"/>
</linearGradient>
<linearGradient id="paint55_linear_651_532" x1="46.4397" y1="62.7805" x2="87.6756" y2="86.5864" gradientUnits="userSpaceOnUse">
<stop stop-color="white"/>
<stop offset="0.31" stop-color="#E9DDF1"/>
<stop offset="0.98" stop-color="#B188CD"/>
<stop offset="1" stop-color="#B086CC"/>
</linearGradient>
<linearGradient id="paint56_linear_651_532" x1="46.7094" y1="62.8251" x2="87.3961" y2="86.3164" gradientUnits="userSpaceOnUse">
<stop stop-color="white"/>
<stop offset="0.31" stop-color="#E9DDF1"/>
<stop offset="0.98" stop-color="#B188CD"/>
<stop offset="1" stop-color="#B086CC"/>
</linearGradient>
<linearGradient id="paint57_linear_651_532" x1="46.9741" y1="62.8701" x2="87.1116" y2="86.042" gradientUnits="userSpaceOnUse">
<stop stop-color="white"/>
<stop offset="0.31" stop-color="#E9DDF1"/>
<stop offset="0.98" stop-color="#B188CD"/>
<stop offset="1" stop-color="#B086CC"/>
</linearGradient>
<linearGradient id="paint58_linear_651_532" x1="47.2288" y1="62.9153" x2="86.8171" y2="85.7726" gradientUnits="userSpaceOnUse">
<stop stop-color="white"/>
<stop offset="0.31" stop-color="#E9DDF1"/>
<stop offset="0.98" stop-color="#B188CD"/>
<stop offset="1" stop-color="#B086CC"/>
</linearGradient>
<linearGradient id="paint59_linear_651_532" x1="51.0828" y1="60.039" x2="89.6376" y2="82.2971" gradientUnits="userSpaceOnUse">
<stop offset="0.19" stop-color="#3D065F"/>
<stop offset="0.93" stop-color="#3D065F"/>
</linearGradient>
<linearGradient id="paint60_linear_651_532" x1="51.5329" y1="60.3741" x2="89.0742" y2="82.048" gradientUnits="userSpaceOnUse">
<stop offset="0.19" stop-color="#3D065F"/>
<stop offset="0.93" stop-color="#3D065F"/>
</linearGradient>
<linearGradient id="paint61_linear_651_532" x1="51.9871" y1="60.713" x2="88.5048" y2="81.7978" gradientUnits="userSpaceOnUse">
<stop offset="0.19" stop-color="#3D065F"/>
<stop offset="0.93" stop-color="#3D065F"/>
</linearGradient>
<linearGradient id="paint62_linear_651_532" x1="52.4412" y1="61.0475" x2="87.9404" y2="81.5482" gradientUnits="userSpaceOnUse">
<stop offset="0.19" stop-color="#3D065F"/>
<stop offset="0.93" stop-color="#3D065F"/>
</linearGradient>
<linearGradient id="paint63_linear_651_532" x1="52.8958" y1="61.3876" x2="87.3764" y2="81.2941" gradientUnits="userSpaceOnUse">
<stop offset="0.19" stop-color="#3D065F"/>
<stop offset="0.93" stop-color="#3D065F"/>
</linearGradient>
<linearGradient id="paint64_linear_651_532" x1="53.345" y1="61.722" x2="86.812" y2="81.0443" gradientUnits="userSpaceOnUse">
<stop offset="0.19" stop-color="#3D065F"/>
<stop offset="0.93" stop-color="#3D065F"/>
</linearGradient>
<linearGradient id="paint65_linear_651_532" x1="53.7996" y1="62.0609" x2="86.2481" y2="80.7941" gradientUnits="userSpaceOnUse">
<stop offset="0.19" stop-color="#3D065F"/>
<stop offset="0.93" stop-color="#3D065F"/>
</linearGradient>
<linearGradient id="paint66_linear_651_532" x1="54.2538" y1="62.3949" x2="85.6788" y2="80.5389" gradientUnits="userSpaceOnUse">
<stop offset="0.19" stop-color="#3D065F"/>
<stop offset="0.93" stop-color="#3D065F"/>
</linearGradient>
<linearGradient id="paint67_linear_651_532" x1="54.7079" y1="62.73" x2="85.1144" y2="80.2899" gradientUnits="userSpaceOnUse">
<stop offset="0.19" stop-color="#3D065F"/>
<stop offset="0.93" stop-color="#3D065F"/>
</linearGradient>
<linearGradient id="paint68_linear_651_532" x1="55.1576" y1="63.0699" x2="84.5505" y2="80.0406" gradientUnits="userSpaceOnUse">
<stop offset="0.19" stop-color="#3D065F"/>
<stop offset="0.93" stop-color="#3D065F"/>
</linearGradient>
<linearGradient id="paint69_linear_651_532" x1="55.6117" y1="63.404" x2="83.9861" y2="79.7855" gradientUnits="userSpaceOnUse">
<stop offset="0.19" stop-color="#3D065F"/>
<stop offset="0.93" stop-color="#3D065F"/>
</linearGradient>
<radialGradient id="paint70_radial_651_532" cx="0" cy="0" r="1" gradientUnits="userSpaceOnUse" gradientTransform="translate(58.3028 38.2849) scale(48.7352)">
<stop offset="0.01" stop-color="white"/>
<stop offset="0.16" stop-color="#E6D7F0"/>
<stop offset="0.28" stop-color="#D7BDE7"/>
<stop offset="0.36" stop-color="#D1B4E3"/>
<stop offset="0.48" stop-color="#C4A4DC"/>
<stop offset="0.71" stop-color="#A17BC9"/>
<stop offset="0.72" stop-color="#9F79C8"/>
<stop offset="0.81" stop-color="#A37CC9"/>
<stop offset="0.9" stop-color="#AE84CC"/>
<stop offset="0.91" stop-color="#B086CC"/>
<stop offset="0.96" stop-color="#AD84CB"/>
<stop offset="0.99" stop-color="#A57DC9"/>
<stop offset="1" stop-color="#9F79C8"/>
</radialGradient>
<linearGradient id="paint71_linear_651_532" x1="33.5037" y1="49.2589" x2="69.8566" y2="49.2589" gradientUnits="userSpaceOnUse">
<stop offset="0.02" stop-color="#45108A"/>
<stop offset="0.29" stop-color="#3D065F"/>
<stop offset="1" stop-color="#10054D"/>
</linearGradient>
<radialGradient id="paint72_radial_651_532" cx="0" cy="0" r="1" gradientUnits="userSpaceOnUse" gradientTransform="translate(84.9499 92.6672) scale(11.7831 11.7831)">
<stop offset="0.04" stop-color="#6115A3"/>
<stop offset="0.1" stop-color="#5A139A"/>
<stop offset="0.52" stop-color="#2B0658"/>
<stop offset="1" stop-color="#10054D"/>
</radialGradient>
<linearGradient id="paint73_linear_651_532" x1="78.6638" y1="104.046" x2="102.195" y2="106.937" gradientUnits="userSpaceOnUse">
<stop offset="0.01" stop-color="#C1A1D5"/>
<stop offset="0.05" stop-color="#C8ABDA"/>
<stop offset="0.11" stop-color="#DAC6E6"/>
<stop offset="0.2" stop-color="#F7F2F9"/>
<stop offset="0.22" stop-color="white"/>
<stop offset="0.25" stop-color="#F9F5FB"/>
<stop offset="0.3" stop-color="#E9DBF2"/>
<stop offset="0.36" stop-color="#D1B4E3"/>
<stop offset="0.43" stop-color="#B395D6"/>
<stop offset="0.49" stop-color="#9C7DCB"/>
<stop offset="0.56" stop-color="#8E6EC5"/>
<stop offset="0.61" stop-color="#8969C3"/>
<stop offset="0.76" stop-color="#9471C6"/>
<stop offset="1" stop-color="#B086CC"/>
</linearGradient>
<radialGradient id="paint74_radial_651_532" cx="0" cy="0" r="1" gradientUnits="userSpaceOnUse" gradientTransform="translate(81.1053 101.126) scale(16.6112 16.6112)">
<stop offset="0.38" stop-color="white"/>
<stop offset="0.47" stop-color="#F4F2F9"/>
<stop offset="0.63" stop-color="#D8D0E8"/>
<stop offset="0.85" stop-color="#AA99CC"/>
<stop offset="1" stop-color="#8770B8"/>
</radialGradient>
<radialGradient id="paint75_radial_651_532" cx="0" cy="0" r="1" gradientUnits="userSpaceOnUse" gradientTransform="translate(82.7107 125.788) rotate(-30.6997) scale(4.02097 9.10451)">
<stop stop-color="#972A74"/>
<stop offset="0.04" stop-color="#8A266A"/>
<stop offset="0.19" stop-color="#601B4A"/>
<stop offset="0.35" stop-color="#3D112F"/>
<stop offset="0.51" stop-color="#230A1B"/>
<stop offset="0.67" stop-color="#0F040C"/>
<stop offset="0.83" stop-color="#040103"/>
<stop offset="1"/>
</radialGradient>
<radialGradient id="paint76_radial_651_532" cx="0" cy="0" r="1" gradientUnits="userSpaceOnUse" gradientTransform="translate(84.4903 124.804) rotate(-23.8059) scale(4.19328 9.46751)">
<stop stop-color="#481437"/>
<stop offset="0.07" stop-color="#3D112F"/>
<stop offset="0.3" stop-color="#220A1A"/>
<stop offset="0.52" stop-color="#0F040C"/>
<stop offset="0.76" stop-color="#040103"/>
<stop offset="1"/>
</radialGradient>
<linearGradient id="paint77_linear_651_532" x1="56.8902" y1="22.1832" x2="77.2011" y2="22.1832" gradientUnits="userSpaceOnUse">
<stop offset="0.01" stop-color="#C1A1D5"/>
<stop offset="0.05" stop-color="#C8ABDA"/>
<stop offset="0.11" stop-color="#DAC6E6"/>
<stop offset="0.2" stop-color="#F7F2F9"/>
<stop offset="0.22" stop-color="white"/>
<stop offset="0.25" stop-color="#F9F5FB"/>
<stop offset="0.3" stop-color="#E9DBF2"/>
<stop offset="0.36" stop-color="#D1B4E3"/>
<stop offset="0.43" stop-color="#B395D6"/>
<stop offset="0.49" stop-color="#9C7DCB"/>
<stop offset="0.56" stop-color="#8E6EC5"/>
<stop offset="0.61" stop-color="#8969C3"/>
<stop offset="0.76" stop-color="#9471C6"/>
<stop offset="1" stop-color="#B086CC"/>
</linearGradient>
<linearGradient id="paint78_linear_651_532" x1="58.9423" y1="13.7155" x2="75.2739" y2="23.147" gradientUnits="userSpaceOnUse">
<stop offset="0.08" stop-color="white"/>
<stop offset="0.21" stop-color="#F9F5FB"/>
<stop offset="0.44" stop-color="#E8DBF0"/>
<stop offset="0.74" stop-color="#CCB1DE"/>
<stop offset="1" stop-color="#B086CC"/>
</linearGradient>
<linearGradient id="paint79_linear_651_532" x1="65.5828" y1="11.4439" x2="68.6185" y2="11.4439" gradientUnits="userSpaceOnUse">
<stop offset="0.01" stop-color="#C1A1D5"/>
<stop offset="0.05" stop-color="#C8ABDA"/>
<stop offset="0.11" stop-color="#DAC6E6"/>
<stop offset="0.2" stop-color="#F7F2F9"/>
<stop offset="0.22" stop-color="white"/>
<stop offset="0.25" stop-color="#F9F5FB"/>
<stop offset="0.3" stop-color="#E9DBF2"/>
<stop offset="0.36" stop-color="#D1B4E3"/>
<stop offset="0.43" stop-color="#B395D6"/>
<stop offset="0.49" stop-color="#9C7DCB"/>
<stop offset="0.56" stop-color="#8E6EC5"/>
<stop offset="0.61" stop-color="#8969C3"/>
<stop offset="0.76" stop-color="#9471C6"/>
<stop offset="1" stop-color="#B086CC"/>
</linearGradient>
<radialGradient id="paint80_radial_651_532" cx="0" cy="0" r="1" gradientUnits="userSpaceOnUse" gradientTransform="translate(66.0165 3.70969) scale(6.11624 6.11624)">
<stop offset="0.01" stop-color="white"/>
<stop offset="0.16" stop-color="#E6D7F0"/>
<stop offset="0.28" stop-color="#D7BDE7"/>
<stop offset="0.36" stop-color="#D1B4E3"/>
<stop offset="0.48" stop-color="#C4A4DC"/>
<stop offset="0.71" stop-color="#A17BC9"/>
<stop offset="0.72" stop-color="#9F79C8"/>
<stop offset="0.81" stop-color="#A37CC9"/>
<stop offset="0.9" stop-color="#AE84CC"/>
<stop offset="0.91" stop-color="#B086CC"/>
<stop offset="0.96" stop-color="#AD84CB"/>
<stop offset="0.99" stop-color="#A57DC9"/>
<stop offset="1" stop-color="#9F79C8"/>
</radialGradient>
<radialGradient id="paint81_radial_651_532" cx="0" cy="0" r="1" gradientUnits="userSpaceOnUse" gradientTransform="translate(56.8152 33.7567) scale(25.2838)">
<stop stop-color="#972A74"/>
<stop offset="0.04" stop-color="#8A266A"/>
<stop offset="0.19" stop-color="#601B4A"/>
<stop offset="0.35" stop-color="#3D112F"/>
<stop offset="0.51" stop-color="#230A1B"/>
<stop offset="0.67" stop-color="#0F040C"/>
<stop offset="0.83" stop-color="#040103"/>
<stop offset="1"/>
</radialGradient>
<radialGradient id="paint82_radial_651_532" cx="0" cy="0" r="1" gradientUnits="userSpaceOnUse" gradientTransform="translate(41.7768 45.1452) scale(9.66616 9.66615)">
<stop stop-color="#43E8E1"/>
<stop offset="0.14" stop-color="#34B5B0"/>
<stop offset="0.3" stop-color="#257F7B"/>
<stop offset="0.46" stop-color="#17514F"/>
<stop offset="0.62" stop-color="#0D2E2D"/>
<stop offset="0.76" stop-color="#061514"/>
<stop offset="0.89" stop-color="#020505"/>
<stop offset="1"/>
</radialGradient>
<radialGradient id="paint83_radial_651_532" cx="0" cy="0" r="1" gradientUnits="userSpaceOnUse" gradientTransform="translate(56.8451 54.0375) scale(9.66615 9.66615)">
<stop stop-color="#43E8E1"/>
<stop offset="0.14" stop-color="#34B5B0"/>
<stop offset="0.3" stop-color="#257F7B"/>
<stop offset="0.46" stop-color="#17514F"/>
<stop offset="0.62" stop-color="#0D2E2D"/>
<stop offset="0.76" stop-color="#061514"/>
<stop offset="0.89" stop-color="#020505"/>
<stop offset="1"/>
</radialGradient>
<radialGradient id="paint84_radial_651_532" cx="0" cy="0" r="1" gradientUnits="userSpaceOnUse" gradientTransform="translate(34.9041 42.7406) rotate(-15.2551) scale(7.02027 30.7542)">
<stop stop-color="#972A74"/>
<stop offset="0.02" stop-color="#8C276C"/>
<stop offset="0.11" stop-color="#671D4F"/>
<stop offset="0.21" stop-color="#471437"/>
<stop offset="0.32" stop-color="#2D0D23"/>
<stop offset="0.43" stop-color="#190713"/>
<stop offset="0.57" stop-color="#0B0308"/>
<stop offset="0.73" stop-color="#020102"/>
<stop offset="1"/>
</radialGradient>
<linearGradient id="paint85_linear_651_532" x1="41.144" y1="62.6373" x2="47.0637" y2="72.9545" gradientUnits="userSpaceOnUse">
<stop offset="0.02" stop-color="#45108A"/>
<stop offset="0.29" stop-color="#3D065F"/>
<stop offset="1" stop-color="#10054D"/>
</linearGradient>
<clipPath id="clip0_651_532">
<rect x="14" y="24.8948" width="104.105" height="104.105" rx="45.2632" fill="white"/>
</clipPath>
<clipPath id="clip1_651_532">
<path d="M25.3159 0H106.79V76.9474C106.79 99.4457 88.5511 117.684 66.0528 117.684C43.5544 117.684 25.3159 99.4457 25.3159 76.9474V0Z" fill="white"/>
</clipPath>
</defs>
</svg>
