<svg width="48" height="48" viewBox="0 0 48 48" fill="none" xmlns="http://www.w3.org/2000/svg">
<rect width="48" height="48" rx="16" fill="url(#paint0_linear_651_836)"/>
<g style="mix-blend-mode:overlay" opacity="0.5">
<path d="M33.4141 21.7906H24.3766C22.9507 21.7906 21.7908 22.9506 21.7908 24.3765V29.2866L19.4492 30.9591C19.3581 31.0241 19.2839 31.11 19.2327 31.2095C19.1815 31.3089 19.1548 31.4192 19.1548 31.5311C19.1548 31.7584 19.2645 31.9715 19.4492 32.1033L21.819 33.796C22.0041 35.0414 23.0806 36 24.3766 36H33.4141C34.84 36 35.9999 34.84 35.9999 33.414V24.3765C35.9999 22.9506 34.84 21.7906 33.4141 21.7906ZM30.3753 31.6707C30.2096 31.6707 30.0816 31.6181 30.044 31.4749L29.7577 30.4732H28.0328L27.7468 31.4749C27.7091 31.6181 27.5811 31.6707 27.4154 31.6707C27.1517 31.6707 26.7978 31.5051 26.7978 31.2642C26.7978 31.249 26.8053 31.2189 26.8128 31.1887L28.2665 26.4514C28.3342 26.2255 28.6129 26.1198 28.8916 26.1198C29.1778 26.1198 29.4565 26.2255 29.5242 26.4514L30.9779 31.1887C30.9854 31.2189 30.9929 31.2414 30.9929 31.2642C30.9929 31.4974 30.639 31.6707 30.3753 31.6707Z" fill="url(#paint1_linear_651_836)"/>
<path d="M28.2363 29.7048H29.547L28.8915 27.3928L28.2363 29.7048ZM20.3846 24.3765C20.3846 23.4324 20.7147 22.5645 21.2646 21.8802C20.4624 21.8802 19.7181 21.6292 19.1045 21.2027C18.4909 21.6293 17.7466 21.8802 16.9442 21.8802C16.8391 21.8802 16.7382 21.8384 16.6639 21.764C16.5895 21.6897 16.5477 21.5888 16.5477 21.4837C16.5477 21.3785 16.5895 21.2776 16.6639 21.2033C16.7382 21.1289 16.8391 21.0871 16.9442 21.0871C17.486 21.0876 18.0177 20.9407 18.4823 20.662C17.9392 20.0759 17.5781 19.3191 17.4908 18.4815H16.9444C16.7254 18.4815 16.5478 18.3041 16.5478 18.0851C16.5478 17.8661 16.7254 17.6886 16.9444 17.6886H18.7083V16.7257C18.7083 16.6206 18.75 16.5198 18.8244 16.4454C18.8987 16.3711 18.9996 16.3293 19.1047 16.3293C19.2098 16.3293 19.3107 16.3711 19.385 16.4454C19.4594 16.5198 19.5011 16.6206 19.5011 16.7257V17.6886H21.2649C21.4839 17.6886 21.6615 17.8662 21.6615 18.0851C21.6615 18.3041 21.4839 18.4815 21.265 18.4815H20.7186C20.6312 19.3191 20.2702 20.0759 19.7271 20.662C20.1915 20.9408 20.7232 21.0878 21.2649 21.0871C21.4742 21.0871 21.6453 21.2494 21.6601 21.455C22.3733 20.7915 23.3282 20.3844 24.3768 20.3844H26.2094V18.7134L28.5509 17.0409C28.6419 16.9759 28.7161 16.89 28.7673 16.7905C28.8184 16.6911 28.8451 16.5808 28.8451 16.4689C28.8452 16.357 28.8185 16.2467 28.7673 16.1472C28.7161 16.0477 28.6419 15.9618 28.5509 15.8967L26.1811 14.2041C25.9958 12.9586 24.9194 12 23.6234 12H14.586C13.16 12 12 13.16 12 14.5858V23.6236C12 25.0494 13.16 26.2094 14.586 26.2094H20.3846V24.3765Z" fill="url(#paint2_linear_651_836)"/>
<path d="M19.1047 20.1665C19.5386 19.7162 19.8332 19.1316 19.9195 18.4817H18.29C18.3763 19.1316 18.6711 19.7162 19.1047 20.1665Z" fill="url(#paint3_linear_651_836)"/>
</g>
<defs>
<linearGradient id="paint0_linear_651_836" x1="24" y1="0" x2="24" y2="48" gradientUnits="userSpaceOnUse">
<stop stop-color="#EC9645"/>
<stop offset="0.497263" stop-color="#E98A3F"/>
<stop offset="1" stop-color="#E76E3D"/>
</linearGradient>
<linearGradient id="paint1_linear_651_836" x1="27.5774" y1="21.7906" x2="27.5774" y2="36" gradientUnits="userSpaceOnUse">
<stop stop-color="white"/>
<stop offset="1" stop-color="white"/>
</linearGradient>
<linearGradient id="paint2_linear_651_836" x1="20.7735" y1="12" x2="20.7735" y2="29.7048" gradientUnits="userSpaceOnUse">
<stop stop-color="white"/>
<stop offset="1" stop-color="white"/>
</linearGradient>
<linearGradient id="paint3_linear_651_836" x1="19.1048" y1="18.4817" x2="19.1048" y2="20.1665" gradientUnits="userSpaceOnUse">
<stop stop-color="white"/>
<stop offset="1" stop-color="white"/>
</linearGradient>
</defs>
</svg>
